<svg width="15" height="15" viewBox="0 0 15 15" fill="none" xmlns="http://www.w3.org/2000/svg">
<g clip-path="url(#clip0_249_1196)">
<path d="M13.911 4.59062H13.4818V3.84642C13.4818 2.78634 12.6228 1.92733 11.5624 1.92712H3.43746C2.37715 1.92733 1.51816 2.78634 1.51816 3.84642V4.59062H1.08894C0.487412 4.59083 0.000117188 5.07803 0 5.67988V10.5314C0.000117188 11.1331 0.487412 11.6201 1.08894 11.6205H1.59864L1.71551 13.0729H3.31661L3.43336 11.6205H11.5669L11.6837 13.0729H13.2847L13.4013 11.6205H13.911C14.5125 11.6201 14.9997 11.1331 15 10.5314V5.67988C14.9998 5.07803 14.5124 4.59083 13.911 4.59062ZM2.15578 3.84642C2.15596 3.49146 2.29875 3.173 2.53122 2.94027C2.76416 2.70792 3.08268 2.56495 3.43749 2.56495H11.5624C11.9174 2.56495 12.236 2.70792 12.4688 2.94027C12.7013 3.173 12.8441 3.49146 12.8443 3.84642V4.75433C12.5407 4.94426 12.3385 5.28006 12.3381 5.66458V8.85209H2.66186V5.66458C2.66165 5.28006 2.45944 4.94426 2.15578 4.75433V3.84642ZM2.72807 12.4351H2.30402L2.23849 11.6205H2.34293H2.79366L2.72807 12.4351ZM12.696 12.4351H12.2719L12.2066 11.6205H12.6569H12.7617L12.696 12.4351ZM14.3622 10.5314C14.362 10.657 14.3123 10.7677 14.23 10.8506C14.1472 10.9328 14.0365 10.9825 13.9109 10.9826H12.6569H2.34293H1.08894C0.963369 10.9824 0.852656 10.9328 0.769922 10.8506C0.687773 10.7677 0.637998 10.657 0.637822 10.5314V5.67988C0.637998 5.55411 0.687803 5.44322 0.769922 5.36048C0.852451 5.27851 0.96334 5.22865 1.08894 5.22847H1.58789C1.70953 5.22868 1.81632 5.27678 1.8965 5.35621C1.97581 5.43639 2.02395 5.54318 2.02412 5.66464V9.48976H12.9759V5.66458C12.9761 5.54312 13.0242 5.43636 13.1036 5.35615C13.1836 5.27672 13.2906 5.22862 13.412 5.22841H13.9109C14.0365 5.22862 14.1472 5.27848 14.23 5.36063C14.3123 5.44336 14.362 5.55405 14.3622 5.67982V10.5314Z" fill="black"/>
</g>
<defs>
<clipPath id="clip0_249_1196">
<rect width="15" height="15" fill="white"/>
</clipPath>
</defs>
</svg>
