<svg width="15" height="15" viewBox="0 0 15 15" fill="none" xmlns="http://www.w3.org/2000/svg">
<g clip-path="url(#clip0_253_1349)">
<path d="M10.8252 13.3759H4.17529V14.0936H10.8252V13.3759Z" fill="black"/>
<path d="M14.6091 0.906372H0.391377C0.175781 0.906372 0 1.08306 0 1.29822V10.5542C0 10.7698 0.175781 10.946 0.391377 10.946H14.6091C14.8242 10.946 15 10.7698 15 10.5542V1.29822C15 1.08306 14.8242 0.906372 14.6091 0.906372ZM7.5 1.2451C7.58104 1.2451 7.64695 1.31102 7.64695 1.39159C7.64695 1.47306 7.58104 1.53807 7.5 1.53807C7.41896 1.53807 7.35352 1.47306 7.35352 1.39159C7.35352 1.31102 7.41896 1.2451 7.5 1.2451ZM14.068 9.81262H0.932461V2.04025H14.068L14.068 9.81262Z" fill="black"/>
<path d="M9.65152 11.2958H5.34854V12.5674L4.17529 13.0563H10.8252L9.65152 12.5674V11.2958Z" fill="black"/>
</g>
<defs>
<clipPath id="clip0_253_1349">
<rect width="15" height="15" fill="white"/>
</clipPath>
</defs>
</svg>
