<svg width="128" height="135" viewBox="0 0 128 135" fill="none" xmlns="http://www.w3.org/2000/svg">
<path d="M14.0146 123.405C14.0146 124.235 13.6596 124.91 12.9496 125.43C12.2396 125.94 11.4546 126.195 10.5946 126.195C9.73455 126.195 8.97455 126.045 8.31455 125.745L8.43455 126.045C8.46455 126.105 8.43955 126.16 8.35955 126.21C8.28955 126.27 8.20955 126.3 8.11955 126.3C8.02955 126.3 7.96955 126.275 7.93955 126.225C7.61955 125.415 7.42455 124.475 7.35455 123.405C7.35455 123.305 7.43455 123.255 7.59455 123.255C7.75455 123.255 7.83955 123.29 7.84955 123.36C8.06955 124.12 8.51455 124.73 9.18455 125.19C9.59455 125.48 10.0696 125.625 10.6096 125.625C11.1596 125.625 11.5996 125.47 11.9296 125.16C12.2696 124.84 12.4396 124.46 12.4396 124.02C12.4396 123.57 12.3246 123.17 12.0946 122.82C11.8646 122.46 11.5796 122.17 11.2396 121.95C10.8996 121.73 10.5296 121.5 10.1296 121.26C9.72955 121.01 9.35955 120.775 9.01955 120.555C8.67955 120.325 8.39455 120.02 8.16455 119.64C7.93455 119.26 7.81955 118.83 7.81955 118.35C7.81955 117.62 8.14455 117.005 8.79455 116.505C9.45455 115.995 10.2796 115.74 11.2696 115.74C11.7196 115.74 12.1396 115.8 12.5296 115.92L12.7096 115.965C12.6696 115.805 12.6446 115.695 12.6346 115.635C12.6346 115.575 12.6546 115.535 12.6946 115.515C12.7446 115.485 12.8146 115.47 12.9046 115.47C13.0046 115.47 13.0696 115.51 13.0996 115.59C13.3296 116.4 13.4646 117.195 13.5046 117.975C13.4746 118.035 13.3896 118.065 13.2496 118.065C13.1196 118.065 13.0396 118.05 13.0096 118.02C12.8996 117.61 12.7446 117.275 12.5446 117.015C12.3446 116.745 12.1246 116.56 11.8846 116.46C11.6446 116.36 11.3646 116.31 11.0446 116.31C10.4246 116.31 9.97955 116.47 9.70955 116.79C9.44955 117.1 9.31955 117.445 9.31955 117.825C9.31955 118.195 9.40455 118.515 9.57455 118.785C9.75455 119.045 9.97955 119.275 10.2496 119.475C10.5296 119.665 10.8346 119.855 11.1646 120.045C11.4946 120.225 11.8246 120.42 12.1546 120.63C12.4946 120.84 12.8046 121.07 13.0846 121.32C13.7046 121.87 14.0146 122.565 14.0146 123.405ZM27.1708 117.915C27.1708 117.995 27.0908 118.035 26.9308 118.035C26.7708 118.035 26.6858 117.99 26.6758 117.9C26.5558 117.25 26.3508 116.88 26.0608 116.79C25.5508 116.66 24.7158 116.585 23.5558 116.565C23.3558 116.575 23.2208 116.63 23.1508 116.73C23.0808 116.83 23.0458 117.005 23.0458 117.255V124.185C23.0458 125.065 23.1508 125.505 23.3608 125.505H24.2308C24.3108 125.505 24.3508 125.59 24.3508 125.76C24.3508 125.92 24.3108 126 24.2308 126L22.3408 125.985L20.2408 126.03C20.1608 126.03 20.1208 125.945 20.1208 125.775C20.1208 125.605 20.1608 125.52 20.2408 125.52H20.8858C21.1358 125.52 21.3008 125.475 21.3808 125.385C21.4608 125.285 21.5008 125.1 21.5008 124.83V117.885C21.5008 117.005 21.4008 116.565 21.2008 116.565H20.8858C19.8958 116.565 19.0958 116.64 18.4858 116.79C18.1958 116.88 17.9908 117.25 17.8708 117.9C17.8608 117.99 17.7758 118.035 17.6158 118.035C17.4558 118.035 17.3758 117.995 17.3758 117.915L17.4958 115.62C17.4958 115.53 17.5758 115.485 17.7358 115.485C17.8958 115.485 17.9758 115.53 17.9758 115.62V115.905C18.6558 115.925 19.2808 115.935 19.8508 115.935H24.3358C25.1458 115.935 25.8908 115.925 26.5708 115.905V115.62C26.5708 115.53 26.6508 115.485 26.8108 115.485C26.9708 115.485 27.0508 115.53 27.0508 115.62L27.1708 117.915ZM37.7689 125.985L35.8639 126.03C35.7739 126.03 35.7289 125.945 35.7289 125.775C35.7289 125.605 35.7739 125.52 35.8639 125.52H36.7189C36.9289 125.52 37.0339 125.435 37.0339 125.265C37.0339 125.195 36.8439 124.6 36.4639 123.48C36.0839 122.35 35.8489 121.645 35.7589 121.365H33.0439C32.3339 123.625 31.9789 124.93 31.9789 125.28C31.9789 125.43 32.0089 125.505 32.0689 125.505H33.1489C33.2589 125.505 33.3139 125.59 33.3139 125.76C33.3139 125.92 33.2489 126 33.1189 126L31.1839 125.985L29.5189 126.03C29.4289 126.03 29.3839 125.945 29.3839 125.775C29.3839 125.605 29.4289 125.52 29.5189 125.52H30.2689C30.4889 125.52 30.6539 125.41 30.7639 125.19C31.1839 124.28 31.7139 122.925 32.3539 121.125C33.0039 119.325 33.4439 118.135 33.6739 117.555C33.9139 116.965 34.0339 116.64 34.0339 116.58C34.0339 116.51 34.0139 116.435 33.9739 116.355C33.9339 116.275 33.9139 116.225 33.9139 116.205C33.9139 116.125 33.9839 116.085 34.1239 116.085C34.2739 116.085 34.4089 116.05 34.5289 115.98C34.6589 115.91 34.7439 115.83 34.7839 115.74C34.8939 115.52 34.9939 115.41 35.0839 115.41C35.1239 115.41 35.1939 115.56 35.2939 115.86L38.3089 124.005C38.6889 125.005 38.9539 125.505 39.1039 125.505H39.6439C39.7439 125.505 39.7939 125.59 39.7939 125.76C39.7939 125.92 39.7539 126 39.6739 126L37.7689 125.985ZM34.4089 117.465C34.0989 118.265 33.7089 119.365 33.2389 120.765H35.5489C34.8789 118.735 34.5189 117.635 34.4689 117.465H34.4089ZM43.563 115.905L45.453 115.935H47.178C48.498 115.935 49.488 116.185 50.148 116.685C50.818 117.185 51.153 117.78 51.153 118.47C51.153 119.16 50.908 119.725 50.418 120.165C49.928 120.595 49.303 120.895 48.543 121.065C47.723 121.155 47.218 121.2 47.028 121.2C46.848 121.2 46.603 121.17 46.293 121.11V124.185C46.293 125.065 46.398 125.505 46.608 125.505H47.478C47.558 125.505 47.598 125.59 47.598 125.76C47.598 125.92 47.558 126 47.478 126L45.588 125.985L43.488 126.03C43.408 126.03 43.368 125.945 43.368 125.775C43.368 125.605 43.408 125.52 43.488 125.52H44.133C44.383 125.52 44.548 125.475 44.628 125.385C44.708 125.285 44.748 125.1 44.748 124.83V117.72C44.748 116.84 44.643 116.4 44.433 116.4H43.563C43.483 116.4 43.443 116.32 43.443 116.16C43.443 115.99 43.483 115.905 43.563 115.905ZM47.088 120.645C47.858 120.645 48.458 120.455 48.888 120.075C49.318 119.695 49.533 119.225 49.533 118.665C49.533 118.105 49.303 117.61 48.843 117.18C48.383 116.75 47.728 116.535 46.878 116.535C46.488 116.535 46.293 116.74 46.293 117.15V120.555C46.563 120.615 46.828 120.645 47.088 120.645ZM52.593 124.95C52.653 124.9 52.713 124.905 52.773 124.965C52.833 125.015 52.863 125.055 52.863 125.085C52.863 125.105 52.858 125.125 52.848 125.145C52.358 125.845 51.813 126.195 51.213 126.195C50.793 126.195 50.408 126.05 50.058 125.76C49.708 125.47 49.408 125.105 49.158 124.665C48.918 124.225 48.683 123.775 48.453 123.315C47.883 122.145 47.338 121.435 46.818 121.185L47.778 121.005C48.238 121.085 48.638 121.29 48.978 121.62C49.328 121.95 49.608 122.32 49.818 122.73C50.028 123.13 50.228 123.53 50.418 123.93C50.868 124.87 51.358 125.34 51.888 125.34C52.078 125.34 52.313 125.21 52.593 124.95ZM69.4149 123.405C69.4149 124.235 69.0599 124.91 68.3499 125.43C67.6399 125.94 66.8549 126.195 65.9949 126.195C65.1349 126.195 64.3749 126.045 63.7149 125.745L63.8349 126.045C63.8649 126.105 63.8399 126.16 63.7599 126.21C63.6899 126.27 63.6099 126.3 63.5199 126.3C63.4299 126.3 63.3699 126.275 63.3399 126.225C63.0199 125.415 62.8249 124.475 62.7549 123.405C62.7549 123.305 62.8349 123.255 62.9949 123.255C63.1549 123.255 63.2399 123.29 63.2499 123.36C63.4699 124.12 63.9149 124.73 64.5849 125.19C64.9949 125.48 65.4699 125.625 66.0099 125.625C66.5599 125.625 66.9999 125.47 67.3299 125.16C67.6699 124.84 67.8399 124.46 67.8399 124.02C67.8399 123.57 67.7249 123.17 67.4949 122.82C67.2649 122.46 66.9799 122.17 66.6399 121.95C66.2999 121.73 65.9299 121.5 65.5299 121.26C65.1299 121.01 64.7599 120.775 64.4199 120.555C64.0799 120.325 63.7949 120.02 63.5649 119.64C63.3349 119.26 63.2199 118.83 63.2199 118.35C63.2199 117.62 63.5449 117.005 64.1949 116.505C64.8549 115.995 65.6799 115.74 66.6699 115.74C67.1199 115.74 67.5399 115.8 67.9299 115.92L68.1099 115.965C68.0699 115.805 68.0449 115.695 68.0349 115.635C68.0349 115.575 68.0549 115.535 68.0949 115.515C68.1449 115.485 68.2149 115.47 68.3049 115.47C68.4049 115.47 68.4699 115.51 68.4999 115.59C68.7299 116.4 68.8649 117.195 68.9049 117.975C68.8749 118.035 68.7899 118.065 68.6499 118.065C68.5199 118.065 68.4399 118.05 68.4099 118.02C68.2999 117.61 68.1449 117.275 67.9449 117.015C67.7449 116.745 67.5249 116.56 67.2849 116.46C67.0449 116.36 66.7649 116.31 66.4449 116.31C65.8249 116.31 65.3799 116.47 65.1099 116.79C64.8499 117.1 64.7199 117.445 64.7199 117.825C64.7199 118.195 64.8049 118.515 64.9749 118.785C65.1549 119.045 65.3799 119.275 65.6499 119.475C65.9299 119.665 66.2349 119.855 66.5649 120.045C66.8949 120.225 67.2249 120.42 67.5549 120.63C67.8949 120.84 68.2049 121.07 68.4849 121.32C69.1049 121.87 69.4149 122.565 69.4149 123.405ZM82.8862 115.92L84.9862 115.875C85.0662 115.875 85.1062 115.96 85.1062 116.13C85.1062 116.3 85.0662 116.385 84.9862 116.385H84.3412C84.0912 116.385 83.9262 116.435 83.8462 116.535C83.7662 116.625 83.7262 116.805 83.7262 117.075V124.185C83.7262 125.065 83.8312 125.505 84.0412 125.505H84.9112C84.9912 125.505 85.0312 125.59 85.0312 125.76C85.0312 125.92 84.9912 126 84.9112 126L83.0212 125.985L80.9212 126.03C80.8412 126.03 80.8012 125.945 80.8012 125.775C80.8012 125.605 80.8412 125.52 80.9212 125.52H81.5662C81.8162 125.52 81.9812 125.475 82.0612 125.385C82.1412 125.285 82.1812 125.1 82.1812 124.83V121.29H76.8262V124.185C76.8262 125.065 76.9312 125.505 77.1412 125.505H78.0112C78.0912 125.505 78.1312 125.59 78.1312 125.76C78.1312 125.92 78.0912 126 78.0112 126L76.1212 125.985L74.0212 126.03C73.9412 126.03 73.9012 125.945 73.9012 125.775C73.9012 125.605 73.9412 125.52 74.0212 125.52H74.6662C74.9162 125.52 75.0812 125.475 75.1612 125.385C75.2412 125.285 75.2812 125.1 75.2812 124.83V117.72C75.2812 116.84 75.1762 116.4 74.9662 116.4H74.0962C74.0162 116.4 73.9762 116.32 73.9762 116.16C73.9762 115.99 74.0162 115.905 74.0962 115.905L75.9862 115.92L78.0862 115.875C78.1662 115.875 78.2062 115.96 78.2062 116.13C78.2062 116.3 78.1662 116.385 78.0862 116.385H77.4412C77.1912 116.385 77.0262 116.435 76.9462 116.535C76.8662 116.625 76.8262 116.805 76.8262 117.075V120.675H82.1812V117.72C82.1812 116.84 82.0762 116.4 81.8662 116.4H80.9962C80.9162 116.4 80.8762 116.32 80.8762 116.16C80.8762 115.99 80.9162 115.905 80.9962 115.905L82.8862 115.92ZM89.7671 115.905L91.6571 115.935H96.0071V115.62C96.0071 115.53 96.0771 115.485 96.2171 115.485C96.3671 115.485 96.4421 115.53 96.4421 115.62C96.4421 116.62 96.4921 117.38 96.5921 117.9C96.6121 117.98 96.5421 118.02 96.3821 118.02C96.2221 118.02 96.1321 117.98 96.1121 117.9C95.9521 117.27 95.7621 116.905 95.5421 116.805C95.0121 116.605 94.1621 116.5 92.9921 116.49C92.7921 116.5 92.6571 116.555 92.5871 116.655C92.5271 116.755 92.4971 116.93 92.4971 117.18V120.72C93.1171 120.71 93.7221 120.68 94.3121 120.63C94.9021 120.58 95.2221 120.54 95.2721 120.51L95.4221 119.625C95.4321 119.555 95.4921 119.52 95.6021 119.52C95.8121 119.52 95.9071 119.565 95.8871 119.655C95.8371 120.045 95.8121 120.485 95.8121 120.975C95.8121 121.465 95.8371 121.905 95.8871 122.295C95.9071 122.375 95.8321 122.415 95.6621 122.415C95.5021 122.415 95.4221 122.385 95.4221 122.325L95.2571 121.425C95.1971 121.395 94.8771 121.355 94.2971 121.305C93.7271 121.245 93.1271 121.21 92.4971 121.2V124.08C92.4971 124.96 92.6021 125.4 92.8121 125.4H93.5771C95.1271 125.38 96.1871 125.17 96.7571 124.77L96.8621 123.945C96.8821 123.865 96.9671 123.825 97.1171 123.825C97.2771 123.825 97.3571 123.855 97.3571 123.915L97.2221 126.33C97.2221 126.4 97.1421 126.435 96.9821 126.435C96.8321 126.435 96.7571 126.4 96.7571 126.33V126H93.0521L89.6921 126.03C89.6121 126.03 89.5721 125.945 89.5721 125.775C89.5721 125.605 89.6121 125.52 89.6921 125.52H90.3371C90.5871 125.52 90.7521 125.475 90.8321 125.385C90.9121 125.285 90.9521 125.1 90.9521 124.83V117.72C90.9521 116.84 90.8471 116.4 90.6371 116.4H89.7671C89.6871 116.4 89.6471 116.32 89.6471 116.16C89.6471 115.99 89.6871 115.905 89.7671 115.905ZM103.871 115.92L105.971 115.875C106.051 115.875 106.091 115.96 106.091 116.13C106.091 116.3 106.051 116.385 105.971 116.385H105.326C105.076 116.385 104.911 116.435 104.831 116.535C104.751 116.625 104.711 116.805 104.711 117.075V125.4H105.581C107.171 125.4 108.271 125.19 108.881 124.77L108.986 123.945C109.006 123.865 109.091 123.825 109.241 123.825C109.401 123.825 109.481 123.855 109.481 123.915L109.346 126.33C109.346 126.4 109.266 126.435 109.106 126.435C108.956 126.435 108.881 126.4 108.881 126.33V126H104.006L101.906 126.03C101.826 126.03 101.786 125.945 101.786 125.775C101.786 125.605 101.826 125.52 101.906 125.52H102.551C102.801 125.52 102.966 125.475 103.046 125.385C103.126 125.285 103.166 125.1 103.166 124.83V117.72C103.166 116.84 103.061 116.4 102.851 116.4H101.981C101.901 116.4 101.861 116.32 101.861 116.16C101.861 115.99 101.901 115.905 101.981 115.905C101.981 115.905 102.611 115.91 103.871 115.92ZM115.528 115.92L117.628 115.875C117.708 115.875 117.748 115.96 117.748 116.13C117.748 116.3 117.708 116.385 117.628 116.385H116.983C116.733 116.385 116.568 116.435 116.488 116.535C116.408 116.625 116.368 116.805 116.368 117.075V125.4H117.238C118.828 125.4 119.928 125.19 120.538 124.77L120.643 123.945C120.663 123.865 120.748 123.825 120.898 123.825C121.058 123.825 121.138 123.855 121.138 123.915L121.003 126.33C121.003 126.4 120.923 126.435 120.763 126.435C120.613 126.435 120.538 126.4 120.538 126.33V126H115.663L113.563 126.03C113.483 126.03 113.443 125.945 113.443 125.775C113.443 125.605 113.483 125.52 113.563 125.52H114.208C114.458 125.52 114.623 125.475 114.703 125.385C114.783 125.285 114.823 125.1 114.823 124.83V117.72C114.823 116.84 114.718 116.4 114.508 116.4H113.638C113.558 116.4 113.518 116.32 113.518 116.16C113.518 115.99 113.558 115.905 113.638 115.905C113.638 115.905 114.268 115.91 115.528 115.92Z" fill="black"/>
<path d="M48.0518 26.0515L39.8144 15.0897C33.132 15.7874 32.558 22.1522 33.1063 25.2474L45.1989 31.078L48.0518 26.0515Z" fill="#D89241"/>
<path d="M62.6228 17.0205L61.7912 2.58351C56.8006 -1.21885 53.1689 3.03332 51.9768 5.63471L56.6784 18.3166L62.6228 17.0205Z" fill="#D89241"/>
<path d="M45.0611 51.0208L42.5184 42.8422L29.1737 41.1955C24.8529 43.8083 26.7578 49.3289 28.2503 51.7626L45.0611 51.0208Z" fill="#D89241"/>
<path d="M45.3718 53.3525L28.2269 54.1291C25.9167 57.883 27.7625 62.6217 28.9742 64.5217L60.1484 61.2672L60.1484 57.4453L45.3718 53.3525Z" fill="#D89241"/>
<path d="M33.1846 27.9418L44.5741 33.508L43.302 40.7338L29.9223 38.753C26.6354 33.1516 30.7276 29.2116 33.1846 27.9418Z" fill="#D89241"/>
<path d="M54.4021 19.1678L50.0695 6.78512C43.3474 4.51459 41.4037 10.0542 41.2722 13.1078L49.4398 23.4013L54.4021 19.1678Z" fill="#D89241"/>
<path d="M74.6947 3.24431L71.9208 18.7332L65.2934 16.723L64.8656 2.9194C68.9911 -1.56445 73.1373 1.26773 74.6947 3.24431Z" fill="#D89241"/>
<path d="M81.4838 26.2156L85.9136 7.17611C83.6848 2.00465 78.0745 3.26582 76.5434 4.77671L73.6998 19.5974L81.4838 26.2156Z" fill="#D89241"/>
<path d="M78.5458 73.5364L86.7833 84.4982C93.4657 83.8005 94.0397 77.4357 93.4914 74.3405L81.3987 68.5099L78.5458 73.5364Z" fill="#D89241"/>
<path d="M63.9758 82.5674L64.8075 97.0044C69.798 100.807 73.4298 96.5546 74.6218 93.9532L69.9202 81.2713L63.9758 82.5674Z" fill="#D89241"/>
<path d="M81.5366 48.5675L84.0793 56.7462L97.4239 58.3929C101.745 55.7801 99.8399 50.2595 98.3473 47.8258L81.5366 48.5675Z" fill="#D89241"/>
<path d="M81.2259 46.2354L98.3707 45.4588C100.681 41.7049 98.8352 36.9662 97.6235 35.0661L66.4493 38.3207L66.4493 42.1426L81.2259 46.2354Z" fill="#D89241"/>
<path d="M93.4131 71.6466L82.0236 66.0804L83.2956 58.8545L96.6753 60.8353C99.9622 66.4368 95.8701 70.3768 93.4131 71.6466Z" fill="#D89241"/>
<path d="M72.1956 80.4206L76.5282 92.8033C83.2503 95.0738 85.1939 89.5342 85.3255 86.4806L77.1578 76.1871L72.1956 80.4206Z" fill="#D89241"/>
<path d="M51.904 96.3441L54.6779 80.8551L61.3052 82.8654L61.733 96.669C57.6076 101.153 53.4614 98.3206 51.904 96.3441Z" fill="#D89241"/>
<path d="M45.1139 73.3728L40.6841 92.4123C42.9128 97.5837 48.5231 96.3226 50.0542 94.8117L52.8979 79.991L45.1139 73.3728Z" fill="#D89241"/>
<path d="M90.5314 16.9352L93.7399 17.8464C94.5533 17.3089 96.5285 16.0403 97.9227 15.2662C99.317 14.4922 99.6656 15.5888 99.6656 16.2338L99.317 21.0717C100.595 21.8243 103.594 24.3833 103.805 24.6758C104.502 25.6434 103.108 25.9659 103.108 25.9659L97.9227 26.8772L96.1799 31.7151C95.6222 32.2311 95.018 31.9301 94.7856 31.7151L91.9971 27.8448L86.7251 27.5785C85.3308 27.256 86.3764 25.9659 86.3764 25.9659L89.2084 22.3618L88.44 20.4829L87.3943 18.5478C86.3764 16.6126 86.7251 16.2338 87.7428 16.2901L89.2084 16.6126L90.5314 16.9352Z" fill="#FFE600"/>
</svg>
