<svg width="791" height="91" viewBox="0 0 791 91" fill="none" xmlns="http://www.w3.org/2000/svg">
<path d="M117.36 77.928C117.36 81.4693 115.845 84.3493 112.816 86.568C109.787 88.744 106.437 89.832 102.768 89.832C99.0987 89.832 95.856 89.192 93.04 87.912L93.552 89.192C93.68 89.448 93.5733 89.6827 93.232 89.896C92.9333 90.152 92.592 90.28 92.208 90.28C91.824 90.28 91.568 90.1733 91.44 89.96C90.0747 86.504 89.2427 82.4933 88.944 77.928C88.944 77.5013 89.2853 77.288 89.968 77.288C90.6507 77.288 91.0133 77.4373 91.056 77.736C91.9947 80.9787 93.8933 83.5813 96.752 85.544C98.5013 86.7813 100.528 87.4 102.832 87.4C105.179 87.4 107.056 86.7387 108.464 85.416C109.915 84.0507 110.64 82.4293 110.64 80.552C110.64 78.632 110.149 76.9253 109.168 75.432C108.187 73.896 106.971 72.6587 105.52 71.72C104.069 70.7813 102.491 69.8 100.784 68.776C99.0773 67.7093 97.4987 66.7067 96.048 65.768C94.5973 64.7867 93.3813 63.4853 92.4 61.864C91.4187 60.2427 90.928 58.408 90.928 56.36C90.928 53.2453 92.3147 50.6213 95.088 48.488C97.904 46.312 101.424 45.224 105.648 45.224C107.568 45.224 109.36 45.48 111.024 45.992L111.792 46.184C111.621 45.5013 111.515 45.032 111.472 44.776C111.472 44.52 111.557 44.3493 111.728 44.264C111.941 44.136 112.24 44.072 112.624 44.072C113.051 44.072 113.328 44.2427 113.456 44.584C114.437 48.04 115.013 51.432 115.184 54.76C115.056 55.016 114.693 55.144 114.096 55.144C113.541 55.144 113.2 55.08 113.072 54.952C112.603 53.2027 111.941 51.7733 111.088 50.664C110.235 49.512 109.296 48.7227 108.272 48.296C107.248 47.8693 106.053 47.656 104.688 47.656C102.043 47.656 100.144 48.3387 98.992 49.704C97.8827 51.0267 97.328 52.4987 97.328 54.12C97.328 55.6987 97.6907 57.064 98.416 58.216C99.184 59.3253 100.144 60.3067 101.296 61.16C102.491 61.9707 103.792 62.7813 105.2 63.592C106.608 64.36 108.016 65.192 109.424 66.088C110.875 66.984 112.197 67.9653 113.392 69.032C116.037 71.3787 117.36 74.344 117.36 77.928ZM158.646 64.936C158.646 65.192 158.347 65.32 157.75 65.32C157.195 65.32 156.918 65.1707 156.918 64.872C156.491 62.7813 155.851 61.6293 154.998 61.416C153.462 61.0747 151.136 60.8613 148.022 60.776H146.806C146.379 60.8187 146.166 61.16 146.166 61.8V82.152C146.166 85.3947 146.592 87.016 147.446 87.016H150.646C150.987 87.016 151.158 87.3573 151.158 88.04C151.158 88.68 151.03 89 150.774 89L143.35 88.936L136.95 89.128C136.651 89.128 136.502 88.808 136.502 88.168C136.502 87.528 136.63 87.208 136.886 87.208H139.766C140.235 87.208 140.512 87.1227 140.598 86.952C140.683 86.7387 140.726 86.2053 140.726 85.352V65.896C140.726 62.696 140.342 60.9893 139.574 60.776C136.118 60.776 133.536 60.9893 131.83 61.416C130.976 61.6293 130.336 62.7813 129.91 64.872C129.91 65.1707 129.611 65.32 129.014 65.32C128.459 65.32 128.182 65.192 128.182 64.936L128.502 57.256C128.502 57 128.779 56.872 129.334 56.872C129.931 56.872 130.23 57 130.23 57.256V58.088C130.23 58.088 133.024 58.1307 138.614 58.216H143.35C149.835 58.216 154.187 58.1733 156.406 58.088H156.598V57.256C156.598 57 156.875 56.872 157.43 56.872C158.027 56.872 158.326 57 158.326 57.256L158.646 64.936ZM199.243 89L192.395 89.128C192.097 89.128 191.947 88.808 191.947 88.168C191.947 87.528 192.054 87.208 192.267 87.208H195.403C195.915 87.208 196.171 86.8453 196.171 86.12V65.128C196.171 61.7573 195.702 60.072 194.763 60.072H192.523C192.054 60.072 191.819 59.752 191.819 59.112C191.819 58.4293 192.011 58.088 192.395 58.088C196.193 58.1733 200.075 58.216 204.043 58.216C208.011 58.216 211.083 59.0693 213.259 60.776C215.478 62.44 216.587 64.5093 216.587 66.984C216.587 69.416 215.713 71.3787 213.963 72.872C212.214 74.3653 210.102 75.2187 207.627 75.432C208.865 76.2853 210.465 77.992 212.427 80.552C213.153 81.5333 214.283 82.664 215.819 83.944C217.355 85.1813 219.083 86.2907 221.003 87.272C220.15 88.9787 218.849 89.832 217.099 89.832C215.35 89.832 213.814 89.192 212.491 87.912C211.169 86.632 210.145 85.224 209.419 83.688C208.694 82.1093 207.883 80.488 206.987 78.824C206.134 77.16 205.323 76.072 204.555 75.56L201.611 75.368V82.792C201.611 85.608 202.038 87.016 202.891 87.016H205.579C205.921 87.016 206.091 87.3573 206.091 88.04C206.091 88.68 205.985 89 205.771 89H199.243ZM202.891 60.136C202.038 60.136 201.611 60.84 201.611 62.248V72.872C202.209 73 202.806 73.064 203.403 73.064C205.323 73.064 206.987 72.5307 208.395 71.464C209.803 70.3973 210.507 68.9467 210.507 67.112C210.507 65.2773 209.867 63.656 208.587 62.248C207.35 60.84 205.451 60.136 202.891 60.136ZM282.173 77.928C282.173 81.4693 280.658 84.3493 277.629 86.568C274.599 88.744 271.25 89.832 267.581 89.832C263.911 89.832 260.669 89.192 257.853 87.912L258.365 89.192C258.493 89.448 258.386 89.6827 258.045 89.896C257.746 90.152 257.405 90.28 257.021 90.28C256.637 90.28 256.381 90.1733 256.253 89.96C254.887 86.504 254.055 82.4933 253.757 77.928C253.757 77.5013 254.098 77.288 254.781 77.288C255.463 77.288 255.826 77.4373 255.869 77.736C256.807 80.9787 258.706 83.5813 261.565 85.544C263.314 86.7813 265.341 87.4 267.645 87.4C269.991 87.4 271.869 86.7387 273.277 85.416C274.727 84.0507 275.453 82.4293 275.453 80.552C275.453 78.632 274.962 76.9253 273.981 75.432C272.999 73.896 271.783 72.6587 270.333 71.72C268.882 70.7813 267.303 69.8 265.597 68.776C263.89 67.7093 262.311 66.7067 260.861 65.768C259.41 64.7867 258.194 63.4853 257.213 61.864C256.231 60.2427 255.741 58.408 255.741 56.36C255.741 53.2453 257.127 50.6213 259.901 48.488C262.717 46.312 266.237 45.224 270.461 45.224C272.381 45.224 274.173 45.48 275.837 45.992L276.605 46.184C276.434 45.5013 276.327 45.032 276.285 44.776C276.285 44.52 276.37 44.3493 276.541 44.264C276.754 44.136 277.053 44.072 277.437 44.072C277.863 44.072 278.141 44.2427 278.269 44.584C279.25 48.04 279.826 51.432 279.997 54.76C279.869 55.016 279.506 55.144 278.909 55.144C278.354 55.144 278.013 55.08 277.885 54.952C277.415 53.2027 276.754 51.7733 275.901 50.664C275.047 49.512 274.109 48.7227 273.085 48.296C272.061 47.8693 270.866 47.656 269.501 47.656C266.855 47.656 264.957 48.3387 263.805 49.704C262.695 51.0267 262.141 52.4987 262.141 54.12C262.141 55.6987 262.503 57.064 263.229 58.216C263.997 59.3253 264.957 60.3067 266.109 61.16C267.303 61.9707 268.605 62.7813 270.013 63.592C271.421 64.36 272.829 65.192 274.237 66.088C275.687 66.984 277.01 67.9653 278.205 69.032C280.85 71.3787 282.173 74.344 282.173 77.928ZM315.714 58.088L320.77 58.216C321.239 58.216 321.645 58.216 321.986 58.216L328.642 58.088C328.941 58.088 329.09 58.408 329.09 59.048C329.09 59.6453 328.919 59.944 328.578 59.944H325.634C325.079 59.944 324.802 60.2853 324.802 60.968V82.152C324.802 85.3947 325.229 87.016 326.082 87.016H329.282C329.623 87.016 329.794 87.3573 329.794 88.04C329.794 88.68 329.666 89 329.41 89L321.986 88.936L315.586 89.128C315.287 89.128 315.138 88.808 315.138 88.168C315.138 87.528 315.266 87.208 315.522 87.208H318.402C318.871 87.208 319.149 87.1227 319.234 86.952C319.319 86.7387 319.362 86.2053 319.362 85.352V74.92H303.874V82.152C303.874 85.3947 304.301 87.016 305.154 87.016H308.354C308.695 87.016 308.866 87.3573 308.866 88.04C308.866 88.68 308.738 89 308.482 89L301.058 88.936L294.658 89.128C294.359 89.128 294.21 88.808 294.21 88.168C294.21 87.528 294.338 87.208 294.594 87.208H297.474C297.943 87.208 298.221 87.1227 298.306 86.952C298.391 86.7387 298.434 86.2053 298.434 85.352V65.192C298.434 61.7787 298.007 60.072 297.154 60.072H294.85C294.338 60.072 294.082 59.752 294.082 59.112C294.082 58.4293 294.317 58.088 294.786 58.088L299.842 58.216C300.311 58.216 300.717 58.216 301.058 58.216L307.714 58.088C308.013 58.088 308.162 58.408 308.162 59.048C308.162 59.6453 307.991 59.944 307.65 59.944H304.706C304.151 59.944 303.874 60.2853 303.874 60.968V72.488H319.362V65.192C319.362 61.7787 318.935 60.072 318.082 60.072H315.778C315.266 60.072 315.01 59.752 315.01 59.112C315.01 58.4293 315.245 58.088 315.714 58.088ZM341.749 58.088L348.277 58.216H361.525V57.192C361.525 56.936 361.802 56.808 362.357 56.808C362.954 56.808 363.253 56.936 363.253 57.192C363.253 60.5627 363.402 62.9733 363.701 64.424C363.786 64.68 363.551 64.808 362.997 64.808C362.271 64.808 361.909 64.68 361.909 64.424C361.311 62.4613 360.735 61.352 360.181 61.096C358.389 60.456 355.786 60.136 352.373 60.136C351.775 60.1787 351.37 60.3493 351.157 60.648C350.943 60.9467 350.837 61.48 350.837 62.248V72.744C355.999 72.5733 358.837 72.3387 359.349 72.04L359.797 69.352C359.882 69.1387 360.181 69.032 360.693 69.032C361.247 69.032 361.525 69.1813 361.525 69.48C361.354 70.7173 361.269 72.104 361.269 73.64C361.269 75.1333 361.354 76.4987 361.525 77.736C361.525 77.992 361.226 78.12 360.629 78.12C360.074 78.12 359.797 78.0347 359.797 77.864L359.285 75.112C358.773 74.8133 355.957 74.5787 350.837 74.408V82.152C350.837 85.352 351.263 86.952 352.117 86.952H354.165C358.858 86.8667 362.101 86.2053 363.893 84.968L364.213 82.472C364.298 82.216 364.511 82.088 364.853 82.088C365.237 82.088 365.493 82.088 365.621 82.088C365.877 82.1733 366.005 82.3013 366.005 82.472C365.749 84.264 365.621 86.7813 365.621 90.024C365.621 90.2373 365.322 90.344 364.725 90.344C364.17 90.344 363.893 90.2373 363.893 90.024V89H352.501L341.621 89.128C341.322 89.128 341.173 88.808 341.173 88.168C341.173 87.528 341.301 87.208 341.557 87.208H344.437C344.906 87.208 345.183 87.1227 345.269 86.952C345.354 86.7387 345.397 86.2053 345.397 85.352V65.192C345.397 61.7787 344.97 60.072 344.117 60.072H341.813C341.301 60.072 341.045 59.752 341.045 59.112C341.045 58.4293 341.279 58.088 341.749 58.088ZM378.024 58.088L383.08 58.216C383.549 58.216 383.954 58.216 384.296 58.216L390.952 58.088C391.25 58.088 391.4 58.408 391.4 59.048C391.4 59.6453 391.229 59.944 390.888 59.944H387.944C387.389 59.944 387.112 60.2853 387.112 60.968V82.152C387.112 85.352 387.538 86.952 388.392 86.952H390.056C394.749 86.8667 397.992 86.2053 399.784 84.968L400.104 82.472C400.189 82.216 400.402 82.088 400.744 82.088C401.128 82.088 401.384 82.088 401.512 82.088C401.768 82.1733 401.896 82.3013 401.896 82.472C401.64 84.264 401.512 86.7813 401.512 90.024C401.512 90.2373 401.213 90.344 400.616 90.344C400.061 90.344 399.784 90.2373 399.784 90.024V89H388.776L377.896 89.128C377.597 89.128 377.448 88.808 377.448 88.168C377.448 87.528 377.576 87.208 377.832 87.208H380.712C381.181 87.208 381.458 87.1227 381.544 86.952C381.629 86.7387 381.672 86.2053 381.672 85.352V65.192C381.672 61.7787 381.245 60.072 380.392 60.072H378.088C377.576 60.072 377.32 59.752 377.32 59.112C377.32 58.4293 377.554 58.088 378.024 58.088ZM412.549 58.088L417.605 58.216C418.074 58.216 418.479 58.216 418.821 58.216L425.477 58.088C425.775 58.088 425.925 58.408 425.925 59.048C425.925 59.6453 425.754 59.944 425.413 59.944H422.469C421.914 59.944 421.637 60.2853 421.637 60.968V82.152C421.637 85.352 422.063 86.952 422.917 86.952H424.581C429.274 86.8667 432.517 86.2053 434.309 84.968L434.629 82.472C434.714 82.216 434.927 82.088 435.269 82.088C435.653 82.088 435.909 82.088 436.037 82.088C436.293 82.1733 436.421 82.3013 436.421 82.472C436.165 84.264 436.037 86.7813 436.037 90.024C436.037 90.2373 435.738 90.344 435.141 90.344C434.586 90.344 434.309 90.2373 434.309 90.024V89H423.301L412.421 89.128C412.122 89.128 411.973 88.808 411.973 88.168C411.973 87.528 412.101 87.208 412.357 87.208H415.237C415.706 87.208 415.983 87.1227 416.069 86.952C416.154 86.7387 416.197 86.2053 416.197 85.352V65.192C416.197 61.7787 415.77 60.072 414.917 60.072H412.613C412.101 60.072 411.845 59.752 411.845 59.112C411.845 58.4293 412.079 58.088 412.549 58.088ZM508.562 45.992L517.522 45.8C517.864 45.8 518.034 46.1627 518.034 46.888C518.034 47.6133 517.864 47.976 517.522 47.976H514.77C513.704 47.976 513 48.1893 512.658 48.616C512.317 49 512.146 49.768 512.146 50.92V81.256C512.146 85.0107 512.594 86.888 513.49 86.888H517.202C517.544 86.888 517.714 87.2507 517.714 87.976C517.714 88.6587 517.544 89 517.202 89L509.138 88.936L500.178 89.128C499.837 89.128 499.666 88.7653 499.666 88.04C499.666 87.3147 499.837 86.952 500.178 86.952H502.93C503.997 86.952 504.701 86.76 505.042 86.376C505.384 85.9493 505.554 85.16 505.554 84.008V68.904H482.706V81.256C482.706 85.0107 483.154 86.888 484.05 86.888H487.762C488.104 86.888 488.274 87.2507 488.274 87.976C488.274 88.6587 488.104 89 487.762 89L479.698 88.936L470.738 89.128C470.397 89.128 470.226 88.7653 470.226 88.04C470.226 87.3147 470.397 86.952 470.738 86.952H473.49C474.557 86.952 475.261 86.76 475.602 86.376C475.944 85.9493 476.114 85.16 476.114 84.008V53.672C476.114 49.9173 475.666 48.04 474.77 48.04H471.058C470.717 48.04 470.546 47.6987 470.546 47.016C470.546 46.2907 470.717 45.928 471.058 45.928L479.122 45.992L488.082 45.8C488.424 45.8 488.594 46.1627 488.594 46.888C488.594 47.6133 488.424 47.976 488.082 47.976H485.33C484.264 47.976 483.56 48.1893 483.218 48.616C482.877 49 482.706 49.768 482.706 50.92V66.28H505.554V53.672C505.554 49.9173 505.106 48.04 504.21 48.04H500.498C500.157 48.04 499.986 47.6987 499.986 47.016C499.986 46.2907 500.157 45.928 500.498 45.928L508.562 45.992ZM534.977 62.184C538.433 58.984 542.444 57.384 547.009 57.384C551.574 57.384 555.564 58.984 558.977 62.184C562.433 65.384 564.161 69.1813 564.161 73.576C564.161 77.928 562.433 81.7253 558.977 84.968C555.564 88.2107 551.574 89.832 547.009 89.832C542.444 89.832 538.433 88.2107 534.977 84.968C531.564 81.7253 529.857 77.928 529.857 73.576C529.857 69.1813 531.564 65.384 534.977 62.184ZM554.753 63.72C552.748 61.032 550.166 59.688 547.009 59.688C543.852 59.688 541.27 61.032 539.265 63.72C537.26 66.3653 536.257 69.6507 536.257 73.576C536.257 77.4587 537.26 80.7653 539.265 83.496C541.27 86.184 543.852 87.528 547.009 87.528C550.166 87.528 552.748 86.184 554.753 83.496C556.758 80.7653 557.761 77.4587 557.761 73.576C557.761 69.6507 556.758 66.3653 554.753 63.72ZM604.821 64.936C604.821 65.192 604.522 65.32 603.925 65.32C603.37 65.32 603.093 65.1707 603.093 64.872C602.666 62.7813 602.026 61.6293 601.173 61.416C599.637 61.0747 597.311 60.8613 594.197 60.776H592.981C592.554 60.8187 592.341 61.16 592.341 61.8V82.152C592.341 85.3947 592.767 87.016 593.621 87.016H596.821C597.162 87.016 597.333 87.3573 597.333 88.04C597.333 88.68 597.205 89 596.949 89L589.525 88.936L583.125 89.128C582.826 89.128 582.677 88.808 582.677 88.168C582.677 87.528 582.805 87.208 583.061 87.208H585.941C586.41 87.208 586.687 87.1227 586.773 86.952C586.858 86.7387 586.901 86.2053 586.901 85.352V65.896C586.901 62.696 586.517 60.9893 585.749 60.776C582.293 60.776 579.711 60.9893 578.005 61.416C577.151 61.6293 576.511 62.7813 576.085 64.872C576.085 65.1707 575.786 65.32 575.189 65.32C574.634 65.32 574.357 65.192 574.357 64.936L574.677 57.256C574.677 57 574.954 56.872 575.509 56.872C576.106 56.872 576.405 57 576.405 57.256V58.088C576.405 58.088 579.199 58.1307 584.789 58.216H589.525C596.01 58.216 600.362 58.1733 602.581 58.088H602.773V57.256C602.773 57 603.05 56.872 603.605 56.872C604.202 56.872 604.501 57 604.501 57.256L604.821 64.936ZM615.673 58.088L622.201 58.216H635.449V57.192C635.449 56.936 635.727 56.808 636.281 56.808C636.879 56.808 637.177 56.936 637.177 57.192C637.177 60.5627 637.327 62.9733 637.625 64.424C637.711 64.68 637.476 64.808 636.921 64.808C636.196 64.808 635.833 64.68 635.833 64.424C635.236 62.4613 634.66 61.352 634.105 61.096C632.313 60.456 629.711 60.136 626.297 60.136C625.7 60.1787 625.295 60.3493 625.081 60.648C624.868 60.9467 624.761 61.48 624.761 62.248V72.744C629.924 72.5733 632.761 72.3387 633.273 72.04L633.721 69.352C633.807 69.1387 634.105 69.032 634.617 69.032C635.172 69.032 635.449 69.1813 635.449 69.48C635.279 70.7173 635.193 72.104 635.193 73.64C635.193 75.1333 635.279 76.4987 635.449 77.736C635.449 77.992 635.151 78.12 634.553 78.12C633.999 78.12 633.721 78.0347 633.721 77.864L633.209 75.112C632.697 74.8133 629.881 74.5787 624.761 74.408V82.152C624.761 85.352 625.188 86.952 626.041 86.952H628.089C632.783 86.8667 636.025 86.2053 637.817 84.968L638.137 82.472C638.223 82.216 638.436 82.088 638.777 82.088C639.161 82.088 639.417 82.088 639.545 82.088C639.801 82.1733 639.929 82.3013 639.929 82.472C639.673 84.264 639.545 86.7813 639.545 90.024C639.545 90.2373 639.247 90.344 638.649 90.344C638.095 90.344 637.817 90.2373 637.817 90.024V89H626.425L615.545 89.128C615.247 89.128 615.097 88.808 615.097 88.168C615.097 87.528 615.225 87.208 615.481 87.208H618.361C618.831 87.208 619.108 87.1227 619.193 86.952C619.279 86.7387 619.321 86.2053 619.321 85.352V65.192C619.321 61.7787 618.895 60.072 618.041 60.072H615.737C615.225 60.072 614.969 59.752 614.969 59.112C614.969 58.4293 615.204 58.088 615.673 58.088ZM651.949 58.088L657.005 58.216C657.474 58.216 657.879 58.216 658.22 58.216L664.877 58.088C665.175 58.088 665.325 58.408 665.325 59.048C665.325 59.6453 665.154 59.944 664.812 59.944H661.869C661.314 59.944 661.037 60.2853 661.037 60.968V82.152C661.037 85.352 661.463 86.952 662.317 86.952H663.981C668.674 86.8667 671.917 86.2053 673.709 84.968L674.029 82.472C674.114 82.216 674.327 82.088 674.669 82.088C675.053 82.088 675.309 82.088 675.437 82.088C675.693 82.1733 675.821 82.3013 675.821 82.472C675.565 84.264 675.437 86.7813 675.437 90.024C675.437 90.2373 675.138 90.344 674.541 90.344C673.986 90.344 673.709 90.2373 673.709 90.024V89H662.701L651.821 89.128C651.522 89.128 651.373 88.808 651.373 88.168C651.373 87.528 651.501 87.208 651.757 87.208H654.637C655.106 87.208 655.383 87.1227 655.469 86.952C655.554 86.7387 655.597 86.2053 655.597 85.352V65.192C655.597 61.7787 655.17 60.072 654.317 60.072H652.013C651.501 60.072 651.245 59.752 651.245 59.112C651.245 58.4293 651.479 58.088 651.949 58.088Z" fill="#1B1B1B"/>
<path d="M173.391 60.0436L169.729 67.8004L161.536 69.0483C160.067 69.271 159.479 71.1633 160.544 72.2472L166.471 78.2816L165.069 86.8059C164.817 88.3467 166.37 89.5009 167.671 88.7803L175 84.7554L182.329 88.7803C183.63 89.495 185.183 88.3467 184.931 86.8059L183.529 78.2816L189.456 72.2472C190.521 71.1633 189.933 69.271 188.464 69.0483L180.271 67.8004L176.609 60.0436C175.953 58.6609 174.052 58.6434 173.391 60.0436Z" fill="#FFD600"/>
</svg>
