<svg width="79" height="99" viewBox="0 0 79 99" fill="none" xmlns="http://www.w3.org/2000/svg">
<path d="M23.4264 24.3565L15.9978 12.8312C9.28251 13.0469 8.25271 19.3541 8.57723 22.4807L20.2197 29.165L23.4264 24.3565Z" fill="#C48557"/>
<path d="M38.6081 16.3954L38.8158 1.93598C34.1113 -2.21511 30.1834 1.76514 28.8076 4.27415L32.5859 17.2611L38.6081 16.3954Z" fill="#C48557"/>
<path d="M18.649 49.046L16.7005 40.7058L3.50866 38.1046C-0.988706 40.4002 0.514615 46.0433 1.82845 48.578L18.649 49.046Z" fill="#C48557"/>
<path d="M18.7914 51.3943L1.63504 50.9371C-0.938895 54.5154 0.561642 59.3744 1.63365 61.3566L32.9611 60.3502L33.2357 56.5383L18.7914 51.3943Z" fill="#C48557"/>
<path d="M8.46094 25.1735L19.4211 31.5436L17.6332 38.6594L4.43038 35.7224C1.55443 29.8992 5.91911 26.2635 8.46094 25.1735Z" fill="#C48557"/>
<path d="M30.2546 17.9468L26.8228 5.28485C20.2812 2.53722 17.9446 7.92283 17.594 10.9591L25.001 21.8128L30.2546 17.9468Z" fill="#C48557"/>
<path d="M51.6383 3.52253L47.7587 18.7721L41.2929 16.291L41.8579 2.49228C46.2949 -1.68359 50.2269 1.43917 51.6383 3.52253Z" fill="#C48557"/>
<path d="M56.7601 26.9218L62.5464 8.24987C60.695 2.93164 55.0085 3.78647 53.3729 5.18345L49.4717 19.7615L56.7601 26.9218Z" fill="#C48557"/>
<path d="M51.3813 74.5464L58.8098 86.0716C65.5251 85.8559 66.5549 79.5487 66.2304 76.4221L54.5879 69.7378L51.3813 74.5464Z" fill="#C48557"/>
<path d="M36.1996 82.5074L35.9918 96.9669C40.6963 101.118 44.6242 97.1377 46 94.6287L42.2217 81.6417L36.1996 82.5074Z" fill="#C48557"/>
<path d="M56.1586 49.8569L58.1071 58.197L71.299 60.7983C75.7963 58.5027 74.293 52.8595 72.9792 50.3248L56.1586 49.8569Z" fill="#C48557"/>
<path d="M56.0162 47.5085L73.1726 47.9657C75.7465 44.3875 74.246 39.5285 73.174 37.5462L41.8465 38.5526L41.5719 42.3646L56.0162 47.5085Z" fill="#C48557"/>
<path d="M66.3467 73.7294L55.3865 67.3592L57.1744 60.2435L70.3772 63.1805C73.2532 69.0036 68.8885 72.6394 66.3467 73.7294Z" fill="#C48557"/>
<path d="M44.5531 80.956L47.9848 93.618C54.5264 96.3656 56.863 90.98 57.2136 87.9437L49.8066 77.09L44.5531 80.956Z" fill="#C48557"/>
<path d="M23.1694 95.3803L27.0489 80.1307L33.5147 82.6119L32.9497 96.4106C28.5127 100.586 24.5807 97.4637 23.1694 95.3803Z" fill="#C48557"/>
<path d="M18.0475 71.981L12.2612 90.653C14.1126 95.9712 19.7991 95.1164 21.4347 93.7194L25.3359 79.1413L18.0475 71.981Z" fill="#C48557"/>
<path d="M65.5314 19.4146L68.7399 20.3259C69.5533 19.7884 71.5285 18.5198 72.9227 17.7457C74.317 16.9717 74.6656 18.0683 74.6656 18.7133L74.317 23.5512C75.5951 24.3038 78.5941 26.8628 78.8048 27.1553C79.5019 28.1229 78.1077 28.4454 78.1077 28.4454L72.9227 29.3567L71.1799 34.1946C70.6222 34.7106 70.018 34.4096 69.7856 34.1946L66.9971 30.3242L61.7251 30.058C60.3308 29.7355 61.3764 28.4454 61.3764 28.4454L64.2084 24.8413L63.44 22.9624L62.3943 21.0273C61.3764 19.0921 61.7251 18.7133 62.7428 18.7696L64.2084 19.0921L65.5314 19.4146Z" fill="#FFE600"/>
</svg>
