<svg width="1923" height="2921" viewBox="0 0 1923 2921" fill="none" xmlns="http://www.w3.org/2000/svg">
<path fill-rule="evenodd" clip-rule="evenodd" d="M1920.03 0H0.0332031V2919H1586.56C1592.2 2919.72 1597.94 2920.07 1603.81 2919.99C1608.84 2919.92 1613.8 2919.58 1618.69 2919H1920.03V317.792C1922.55 286.624 1923.57 257.876 1920.03 236.368V0ZM1920.03 236.368C1917.27 219.555 1911.72 207.166 1901.92 201.502C1871.53 183.94 1830.18 247.002 1790.14 308.05C1777.34 327.57 1764.67 346.885 1752.54 363.291C1744.8 373.767 1736.77 384.095 1728.68 394.489L1728.68 394.493C1692.24 441.349 1654.76 489.537 1637.92 558.595C1628.79 595.992 1601.02 632.888 1574.49 668.131C1543.4 709.433 1514.02 748.466 1518.36 783.375C1521.45 808.143 1483.17 839.714 1439.79 875.482C1368.65 934.149 1283.81 1004.11 1345.36 1073.87C1657.81 1193.55 1748.96 1015.09 1797.36 920.324L1797.36 920.323C1805.57 904.233 1812.56 890.556 1819.19 881.16C1856.51 828.241 1872.81 747.336 1888.25 670.65C1890.67 658.623 1893.07 646.699 1895.53 635.003C1907.72 577.003 1908.23 527.689 1908.76 475.939V475.928C1908.84 468.589 1908.92 461.202 1909.03 453.733C1909.42 426.684 1912.56 395.408 1915.68 364.214V364.212V364.211C1917.25 348.535 1918.82 332.88 1920.03 317.792V236.368ZM1618.69 2919C1660.66 2914.03 1697.79 2891.44 1734.5 2869.11L1734.57 2869.07C1738.74 2866.53 1742.91 2863.99 1747.08 2861.48C1754.36 2857.11 1761.78 2852.81 1769.2 2848.52L1769.23 2848.5C1811.77 2823.87 1854.76 2798.99 1876.24 2756.24C1899.66 2709.62 1894.87 2657.4 1890.1 2605.47L1890.1 2605.46L1890.1 2605.45L1890.1 2605.44L1890.1 2605.43C1889.35 2597.31 1888.61 2589.18 1887.97 2581.09C1886.26 2559.35 1887.27 2535.76 1888.29 2512.01C1891.01 2448.31 1893.79 2383.46 1844.29 2349.97C1802.93 2321.98 1754 2341.42 1703.35 2361.55C1670.37 2374.66 1636.65 2388.05 1603.81 2388.84C1571.62 2389.62 1538.96 2379.07 1506.89 2368.72C1459.44 2353.4 1413.27 2338.5 1371.85 2361.31C1318.2 2390.85 1304.37 2454.14 1290.91 2515.7C1287 2533.6 1283.12 2551.35 1278.3 2568.08C1273.83 2583.62 1268.16 2599.56 1262.43 2615.65C1242.08 2672.89 1221.05 2732 1250.89 2781.57C1276.79 2824.58 1329.06 2835.18 1382.09 2845.94C1408.02 2851.19 1434.14 2856.49 1457.44 2865.63C1473.25 2871.83 1488.41 2879.68 1503.45 2887.46C1530.46 2901.44 1557.11 2915.23 1586.56 2919H1618.69ZM178.002 378.746C130.884 457.162 6.89265 719.018 1.17631 826.185C-1.66156 879.388 30.1023 868.018 65.8754 855.212C99.467 843.187 136.594 829.897 151.926 867.619C162.309 893.167 170.255 922.905 178.111 952.306C194.466 1013.51 210.431 1073.26 247.184 1090.71C307.7 1119.45 385.087 1089.44 434.62 1001.87C475.116 930.274 475.393 828.135 475.656 731.322C475.697 716.139 475.738 701.086 475.934 686.303C476.904 612.989 462.828 552.422 448.057 488.864L448.055 488.857L448.054 488.853C445.959 479.84 443.85 470.766 441.769 461.588C434.229 428.345 429.548 389.428 424.879 350.612C413.898 259.318 402.984 168.584 355.101 153.545C303.885 137.46 260.351 222.212 218.208 304.257C204.733 330.492 191.399 356.45 178.002 378.746ZM1137.63 1657.42C1132.88 1644.65 1126.09 1631.76 1119.29 1618.86C1102.95 1587.88 1086.59 1556.85 1098.59 1527.31C1108.12 1503.85 1132.64 1499.16 1157.97 1494.33C1177.93 1490.51 1198.38 1486.6 1212.38 1473.34C1231.29 1455.44 1242.25 1427.66 1252.94 1400.56C1267.99 1362.41 1282.5 1325.6 1317.91 1319.59C1360.38 1312.38 1392.04 1355.26 1422.25 1396.17L1422.25 1396.17C1431.84 1409.15 1441.28 1421.94 1450.88 1432.86C1452.96 1435.24 1455.06 1437.61 1457.16 1439.99C1491.3 1478.73 1526.01 1518.09 1537.34 1569.43C1549.38 1623.94 1535.06 1678.63 1516.44 1729.79C1497.38 1782.15 1473.5 1834.03 1429.91 1864.57C1405.69 1881.55 1419.96 1916.83 1430.25 1942.28C1439.05 1964.04 1444.95 1978.62 1421.38 1968.41C1371.2 1946.68 1212.73 1808.11 1184.4 1758.24C1165.7 1725.34 1150.89 1693.11 1137.63 1657.42ZM440.716 1777.86C408.009 1693.88 376.38 1612.66 314.832 1603.9C223.306 1590.86 155.57 1722.99 98.191 1834.92C92.5584 1845.91 87.0257 1856.7 81.5801 1867.14C33.5038 1959.32 20.47 2074.41 9.71541 2188.93C0.77499 2284.13 0.0213368 2380.27 25.0366 2469.24C46.4092 2545.25 88.6794 2599.02 131.221 2653.14C135.915 2659.11 140.613 2665.08 145.285 2671.09C158.348 2687.89 171.01 2707.01 183.739 2726.24C222.443 2784.68 261.764 2844.06 314.832 2841.95C368.698 2839.8 406.361 2776.03 443.241 2713.59L443.243 2713.58C454.663 2694.25 466.007 2675.04 477.734 2657.83C503.078 2620.63 521.689 2578.36 540.524 2535.57C552.207 2509.03 563.976 2482.29 577.492 2456.45C598.106 2417.04 627.615 2382.31 656.819 2347.93L656.821 2347.93C712.66 2282.21 767.385 2217.8 756.682 2124.5C747.427 2043.82 689.173 2020.58 628.314 1996.29C587.805 1980.13 546.142 1963.5 517.005 1929.17C484.922 1891.37 462.578 1834 440.716 1777.86Z" fill="white"/>
</svg>
