<svg width="1921" height="2921" viewBox="0 0 1921 2921" fill="none" xmlns="http://www.w3.org/2000/svg">
<path fill-rule="evenodd" clip-rule="evenodd" d="M1920.03 0H0.0336914V2919H1586.56C1592.2 2919.72 1597.94 2920.07 1603.81 2919.99C1608.84 2919.92 1613.8 2919.58 1618.69 2919H1920.03V0ZM1618.69 2919C1660.66 2914.03 1697.79 2891.44 1734.5 2869.11C1738.7 2866.55 1742.89 2864 1747.08 2861.48C1754.36 2857.11 1761.78 2852.81 1769.2 2848.52L1769.23 2848.5C1811.77 2823.87 1854.76 2798.99 1876.24 2756.24C1899.67 2709.62 1894.87 2657.4 1890.1 2605.47L1890.1 2605.46L1890.1 2605.45C1889.35 2597.32 1888.61 2589.19 1887.97 2581.09C1886.26 2559.35 1887.27 2535.76 1888.29 2512.01C1891.01 2448.31 1893.79 2383.46 1844.29 2349.97C1802.93 2321.98 1754.01 2341.42 1703.35 2361.55C1670.37 2374.66 1636.66 2388.05 1603.81 2388.84C1571.62 2389.62 1538.96 2379.07 1506.89 2368.72C1459.44 2353.4 1413.27 2338.5 1371.85 2361.31C1318.2 2390.85 1304.37 2454.14 1290.91 2515.7C1287 2533.6 1283.12 2551.35 1278.3 2568.08C1273.83 2583.62 1268.16 2599.56 1262.43 2615.65C1242.08 2672.89 1221.05 2732 1250.89 2781.57C1276.79 2824.58 1329.06 2835.18 1382.09 2845.94C1408.02 2851.19 1434.14 2856.49 1457.44 2865.63C1473.25 2871.83 1488.41 2879.68 1503.45 2887.46C1530.46 2901.44 1557.11 2915.23 1586.56 2919H1618.69ZM1698.96 523.33C1707.22 485.227 1733.91 460.668 1759.86 436.787C1765.62 431.49 1771.34 426.225 1776.81 420.854C1785.39 412.442 1794.17 402.413 1803.04 392.276C1830.8 360.577 1859.47 327.831 1885.58 340.255C1909.98 351.871 1909.8 392.933 1909.61 434.249V434.25C1909.53 451.815 1909.45 469.427 1911.26 484.841C1911.76 489.098 1912.28 493.313 1912.8 497.499V497.5C1916.45 527.007 1919.92 555.125 1914.58 587.282C1913.5 593.766 1912.49 600.385 1911.47 607.061C1904.95 649.631 1898.08 694.543 1871.88 721.815C1867.23 726.657 1862.63 733.916 1857.21 742.456C1825.31 792.75 1765.24 887.463 1501.6 794.479C1446.02 749.788 1509.52 716.532 1562.77 688.645C1595.24 671.643 1623.9 656.636 1619.43 642.25C1613.14 621.973 1633.96 602.004 1656 580.872C1674.8 562.841 1694.49 543.965 1698.96 523.33ZM598.599 514.506C527.612 478.989 294.851 393.398 205.379 402.935C160.961 407.67 174.459 437.495 189.661 471.085C203.936 502.627 219.714 537.489 190.45 558.011C170.63 571.911 147.029 583.991 123.694 595.935C75.1173 620.8 27.6988 645.072 17.9716 683.922C1.95492 747.892 36.7541 820.229 115.631 856.838C180.116 886.767 264.725 872.56 344.922 859.094C357.499 856.982 369.968 854.888 382.234 852.986C443.065 843.551 491.406 821.032 542.134 797.401C549.331 794.048 556.576 790.673 563.911 787.31C590.468 775.135 622.089 764.984 653.629 754.86L653.63 754.86L653.63 754.859C727.812 731.047 801.539 707.38 807.836 657.857C814.572 604.886 738.798 573.816 665.446 543.738L665.445 543.738L665.444 543.737C641.99 534.12 618.782 524.604 598.599 514.506ZM1353.59 1699.42C1348.85 1686.64 1342.05 1673.76 1335.25 1660.86C1318.92 1629.87 1302.56 1598.85 1314.56 1569.3C1324.08 1545.85 1348.61 1541.16 1373.94 1536.32C1393.89 1532.51 1414.35 1528.6 1428.35 1515.34C1447.26 1497.43 1458.21 1469.65 1468.91 1442.55C1483.95 1404.4 1498.47 1367.6 1533.88 1361.59C1576.35 1354.38 1608.01 1397.25 1638.22 1438.16L1638.22 1438.17C1647.81 1451.15 1657.25 1463.93 1666.84 1474.86C1668.93 1477.24 1671.03 1479.61 1673.12 1481.99C1707.27 1520.73 1741.97 1560.09 1753.31 1611.43C1765.35 1665.94 1751.03 1720.63 1732.41 1771.79C1713.35 1824.15 1689.46 1876.03 1645.88 1906.57C1621.65 1923.55 1635.92 1958.83 1646.22 1984.28C1655.02 2006.04 1660.92 2020.62 1637.34 2010.41C1587.17 1988.68 1428.7 1850.11 1400.37 1800.24C1381.67 1767.34 1366.85 1735.1 1353.59 1699.42ZM440.717 1777.86C408.01 1693.88 376.381 1612.66 314.832 1603.9C223.307 1590.86 155.57 1722.99 98.1915 1834.92L98.1909 1834.92L98.189 1834.92C92.5573 1845.91 87.0254 1856.7 81.5806 1867.14C33.5043 1959.32 20.4705 2074.41 9.71591 2188.93C0.77549 2284.13 0.0218365 2380.27 25.0371 2469.24C46.4097 2545.25 88.6799 2599.02 131.222 2653.14C135.916 2659.11 140.613 2665.08 145.286 2671.09C158.348 2687.89 171.011 2707.01 183.74 2726.24C222.443 2784.68 261.764 2844.06 314.832 2841.95C368.699 2839.8 406.362 2776.03 443.242 2713.59C454.662 2694.25 466.007 2675.04 477.735 2657.83C503.079 2620.63 521.689 2578.36 540.524 2535.57L540.526 2535.57C552.208 2509.03 563.977 2482.29 577.493 2456.45C598.106 2417.04 627.616 2382.31 656.82 2347.93L656.821 2347.93C712.661 2282.21 767.386 2217.8 756.683 2124.5C747.428 2043.82 689.174 2020.58 628.314 1996.29C587.805 1980.13 546.142 1963.5 517.006 1929.17C484.923 1891.37 462.579 1834 440.717 1777.86Z" fill="white"/>
</svg>
