<svg width="1900" height="5000" viewBox="0 0 1900 5000" fill="none" xmlns="http://www.w3.org/2000/svg">
<g clip-path="url(#clip0_444_1914)">
<rect width="1900" height="5000" fill="white"/>
<path fill-rule="evenodd" clip-rule="evenodd" d="M1718.78 2585.84C1802.06 2583.84 1890.96 2500.76 1959.25 2546.96C2027.21 2592.94 1996.64 2698.04 2002.94 2778.09C2007.64 2837.89 2018.3 2899.31 1991.21 2953.23C1965.97 3003.46 1911.05 3029.02 1862.05 3058.48C1816.91 3085.61 1771.9 3116.23 1718.78 3116.99C1665.22 3117.75 1622.05 3082.1 1572.4 3062.63C1501.45 3034.79 1404.42 3042.61 1365.86 2978.56C1327.62 2915.06 1372.89 2835.89 1393.27 2765.08C1414.65 2690.77 1417.57 2596.43 1486.82 2558.3C1556.23 2520.08 1638.95 2587.76 1718.78 2585.84Z" fill="#2EA9DF"/>
<path fill-rule="evenodd" clip-rule="evenodd" d="M47.3905 1742.22C187.94 1762.26 214.498 2058.5 324.105 2187.74C423.899 2305.4 631.052 2271.22 652.152 2455.28C674.462 2649.89 489.053 2752.74 406.894 2909.93C358.569 3002.38 326.56 3103.2 270.355 3185.75C202.465 3285.46 143.947 3434.07 47.3905 3437.92C-49.1322 3441.78 -112.427 3296.89 -184.668 3203.91C-249.029 3121.08 -316.772 3043.04 -349.252 2927.44C-383.491 2805.58 -382.459 2673.91 -370.222 2543.52C-355.503 2386.66 -337.663 2229.03 -271.861 2102.78C-188.48 1942.79 -90.1778 1722.61 47.3905 1742.22Z" fill="#2EA9DF"/>
<path fill-rule="evenodd" clip-rule="evenodd" d="M1831.61 3439.22C1691.06 3459.26 1664.5 3755.5 1554.89 3884.74C1455.1 4002.4 1247.95 3968.22 1226.85 4152.28C1204.54 4346.89 1389.95 4449.74 1472.11 4606.93C1520.43 4699.38 1552.44 4800.2 1608.65 4882.75C1676.53 4982.46 1735.05 5131.07 1831.61 5134.92C1928.13 5138.78 1991.43 4993.89 2063.67 4900.91C2128.03 4818.08 2195.77 4740.04 2228.25 4624.44C2262.49 4502.58 2261.46 4370.91 2249.22 4240.52C2234.5 4083.66 2216.66 3926.03 2150.86 3799.78C2067.48 3639.79 1969.18 3419.61 1831.61 3439.22Z" fill="#2EA9DF"/>
<path fill-rule="evenodd" clip-rule="evenodd" d="M-473.919 924.908C-472.961 817.193 -281.563 563.099 -207.084 487.833C-119.682 399.509 -39.2993 248.115 78.6036 275.137C197.638 302.419 200.364 478.7 253.009 593.283C287.926 669.28 325.283 738.544 330.305 822.965C336.846 932.928 359.066 1058.38 285.418 1138.12C207.547 1222.42 77.0518 1246.32 -29.3138 1212.3C-124.943 1181.72 -149.955 1061.34 -211.453 979.206C-272.298 897.952 -474.841 1028.6 -473.919 924.908Z" fill="#2EA9DF"/>
<path fill-rule="evenodd" clip-rule="evenodd" d="M1839 11.0743C2020.5 79 1945.78 89.357 2009.67 11.0743C2084.65 -80.791 2171.2 -241.429 2235.69 -206.708C2300.8 -171.653 2258.25 19.797 2261.34 146.567C2263.39 230.647 2268.61 307.531 2250.48 399.387C2226.86 519.034 2208.83 656.213 2144.32 739.383C2076.11 827.323 2088.5 1335.5 1563.41 901.232C1421.91 739.384 1731.5 668.948 1714.92 576.997C1698.51 486.024 1739.5 -18.9223 1839 11.0743Z" fill="#2EA9DF"/>
<path fill-rule="evenodd" clip-rule="evenodd" d="M-228.926 4393.44C-251.488 4336.24 -309.737 4278.18 -282.457 4221.79C-255.116 4165.27 -157.976 4186.69 -108.914 4145.35C-38.6186 4086.11 -35.4009 3952.52 56.2219 3936.38C140.854 3921.48 193.734 4023.05 251.882 4081.82C304.556 4135.05 360.662 4188.09 376.581 4260.15C392.507 4332.24 368.741 4405.63 338.631 4474.5C307.815 4544.98 269.746 4615.02 202.874 4657.44C133.922 4701.18 261.943 4823.45 185.829 4796.03C111.148 4769.13 -121.906 4591.04 -162.563 4525.79C-189.386 4482.74 -210.399 4440.42 -228.926 4393.44Z" fill="#2EA9DF"/>
</g>
<defs>
<clipPath id="clip0_444_1914">
<rect width="1900" height="5000" fill="white"/>
</clipPath>
</defs>
</svg>
