<svg width="128" height="144" viewBox="0 0 128 144" fill="none" xmlns="http://www.w3.org/2000/svg">
<path d="M14.0146 119.405C14.0146 120.235 13.6596 120.91 12.9496 121.43C12.2396 121.94 11.4546 122.195 10.5946 122.195C9.73455 122.195 8.97455 122.045 8.31455 121.745L8.43455 122.045C8.46455 122.105 8.43955 122.16 8.35955 122.21C8.28955 122.27 8.20955 122.3 8.11955 122.3C8.02955 122.3 7.96955 122.275 7.93955 122.225C7.61955 121.415 7.42455 120.475 7.35455 119.405C7.35455 119.305 7.43455 119.255 7.59455 119.255C7.75455 119.255 7.83955 119.29 7.84955 119.36C8.06955 120.12 8.51455 120.73 9.18455 121.19C9.59455 121.48 10.0696 121.625 10.6096 121.625C11.1596 121.625 11.5996 121.47 11.9296 121.16C12.2696 120.84 12.4396 120.46 12.4396 120.02C12.4396 119.57 12.3246 119.17 12.0946 118.82C11.8646 118.46 11.5796 118.17 11.2396 117.95C10.8996 117.73 10.5296 117.5 10.1296 117.26C9.72955 117.01 9.35955 116.775 9.01955 116.555C8.67955 116.325 8.39455 116.02 8.16455 115.64C7.93455 115.26 7.81955 114.83 7.81955 114.35C7.81955 113.62 8.14455 113.005 8.79455 112.505C9.45455 111.995 10.2796 111.74 11.2696 111.74C11.7196 111.74 12.1396 111.8 12.5296 111.92L12.7096 111.965C12.6696 111.805 12.6446 111.695 12.6346 111.635C12.6346 111.575 12.6546 111.535 12.6946 111.515C12.7446 111.485 12.8146 111.47 12.9046 111.47C13.0046 111.47 13.0696 111.51 13.0996 111.59C13.3296 112.4 13.4646 113.195 13.5046 113.975C13.4746 114.035 13.3896 114.065 13.2496 114.065C13.1196 114.065 13.0396 114.05 13.0096 114.02C12.8996 113.61 12.7446 113.275 12.5446 113.015C12.3446 112.745 12.1246 112.56 11.8846 112.46C11.6446 112.36 11.3646 112.31 11.0446 112.31C10.4246 112.31 9.97955 112.47 9.70955 112.79C9.44955 113.1 9.31955 113.445 9.31955 113.825C9.31955 114.195 9.40455 114.515 9.57455 114.785C9.75455 115.045 9.97955 115.275 10.2496 115.475C10.5296 115.665 10.8346 115.855 11.1646 116.045C11.4946 116.225 11.8246 116.42 12.1546 116.63C12.4946 116.84 12.8046 117.07 13.0846 117.32C13.7046 117.87 14.0146 118.565 14.0146 119.405ZM27.1708 113.915C27.1708 113.995 27.0908 114.035 26.9308 114.035C26.7708 114.035 26.6858 113.99 26.6758 113.9C26.5558 113.25 26.3508 112.88 26.0608 112.79C25.5508 112.66 24.7158 112.585 23.5558 112.565C23.3558 112.575 23.2208 112.63 23.1508 112.73C23.0808 112.83 23.0458 113.005 23.0458 113.255V120.185C23.0458 121.065 23.1508 121.505 23.3608 121.505H24.2308C24.3108 121.505 24.3508 121.59 24.3508 121.76C24.3508 121.92 24.3108 122 24.2308 122L22.3408 121.985L20.2408 122.03C20.1608 122.03 20.1208 121.945 20.1208 121.775C20.1208 121.605 20.1608 121.52 20.2408 121.52H20.8858C21.1358 121.52 21.3008 121.475 21.3808 121.385C21.4608 121.285 21.5008 121.1 21.5008 120.83V113.885C21.5008 113.005 21.4008 112.565 21.2008 112.565H20.8858C19.8958 112.565 19.0958 112.64 18.4858 112.79C18.1958 112.88 17.9908 113.25 17.8708 113.9C17.8608 113.99 17.7758 114.035 17.6158 114.035C17.4558 114.035 17.3758 113.995 17.3758 113.915L17.4958 111.62C17.4958 111.53 17.5758 111.485 17.7358 111.485C17.8958 111.485 17.9758 111.53 17.9758 111.62V111.905C18.6558 111.925 19.2808 111.935 19.8508 111.935H24.3358C25.1458 111.935 25.8908 111.925 26.5708 111.905V111.62C26.5708 111.53 26.6508 111.485 26.8108 111.485C26.9708 111.485 27.0508 111.53 27.0508 111.62L27.1708 113.915ZM37.7689 121.985L35.8639 122.03C35.7739 122.03 35.7289 121.945 35.7289 121.775C35.7289 121.605 35.7739 121.52 35.8639 121.52H36.7189C36.9289 121.52 37.0339 121.435 37.0339 121.265C37.0339 121.195 36.8439 120.6 36.4639 119.48C36.0839 118.35 35.8489 117.645 35.7589 117.365H33.0439C32.3339 119.625 31.9789 120.93 31.9789 121.28C31.9789 121.43 32.0089 121.505 32.0689 121.505H33.1489C33.2589 121.505 33.3139 121.59 33.3139 121.76C33.3139 121.92 33.2489 122 33.1189 122L31.1839 121.985L29.5189 122.03C29.4289 122.03 29.3839 121.945 29.3839 121.775C29.3839 121.605 29.4289 121.52 29.5189 121.52H30.2689C30.4889 121.52 30.6539 121.41 30.7639 121.19C31.1839 120.28 31.7139 118.925 32.3539 117.125C33.0039 115.325 33.4439 114.135 33.6739 113.555C33.9139 112.965 34.0339 112.64 34.0339 112.58C34.0339 112.51 34.0139 112.435 33.9739 112.355C33.9339 112.275 33.9139 112.225 33.9139 112.205C33.9139 112.125 33.9839 112.085 34.1239 112.085C34.2739 112.085 34.4089 112.05 34.5289 111.98C34.6589 111.91 34.7439 111.83 34.7839 111.74C34.8939 111.52 34.9939 111.41 35.0839 111.41C35.1239 111.41 35.1939 111.56 35.2939 111.86L38.3089 120.005C38.6889 121.005 38.9539 121.505 39.1039 121.505H39.6439C39.7439 121.505 39.7939 121.59 39.7939 121.76C39.7939 121.92 39.7539 122 39.6739 122L37.7689 121.985ZM34.4089 113.465C34.0989 114.265 33.7089 115.365 33.2389 116.765H35.5489C34.8789 114.735 34.5189 113.635 34.4689 113.465H34.4089ZM43.563 111.905L45.453 111.935H47.178C48.498 111.935 49.488 112.185 50.148 112.685C50.818 113.185 51.153 113.78 51.153 114.47C51.153 115.16 50.908 115.725 50.418 116.165C49.928 116.595 49.303 116.895 48.543 117.065C47.723 117.155 47.218 117.2 47.028 117.2C46.848 117.2 46.603 117.17 46.293 117.11V120.185C46.293 121.065 46.398 121.505 46.608 121.505H47.478C47.558 121.505 47.598 121.59 47.598 121.76C47.598 121.92 47.558 122 47.478 122L45.588 121.985L43.488 122.03C43.408 122.03 43.368 121.945 43.368 121.775C43.368 121.605 43.408 121.52 43.488 121.52H44.133C44.383 121.52 44.548 121.475 44.628 121.385C44.708 121.285 44.748 121.1 44.748 120.83V113.72C44.748 112.84 44.643 112.4 44.433 112.4H43.563C43.483 112.4 43.443 112.32 43.443 112.16C43.443 111.99 43.483 111.905 43.563 111.905ZM47.088 116.645C47.858 116.645 48.458 116.455 48.888 116.075C49.318 115.695 49.533 115.225 49.533 114.665C49.533 114.105 49.303 113.61 48.843 113.18C48.383 112.75 47.728 112.535 46.878 112.535C46.488 112.535 46.293 112.74 46.293 113.15V116.555C46.563 116.615 46.828 116.645 47.088 116.645ZM52.593 120.95C52.653 120.9 52.713 120.905 52.773 120.965C52.833 121.015 52.863 121.055 52.863 121.085C52.863 121.105 52.858 121.125 52.848 121.145C52.358 121.845 51.813 122.195 51.213 122.195C50.793 122.195 50.408 122.05 50.058 121.76C49.708 121.47 49.408 121.105 49.158 120.665C48.918 120.225 48.683 119.775 48.453 119.315C47.883 118.145 47.338 117.435 46.818 117.185L47.778 117.005C48.238 117.085 48.638 117.29 48.978 117.62C49.328 117.95 49.608 118.32 49.818 118.73C50.028 119.13 50.228 119.53 50.418 119.93C50.868 120.87 51.358 121.34 51.888 121.34C52.078 121.34 52.313 121.21 52.593 120.95ZM69.4149 119.405C69.4149 120.235 69.0599 120.91 68.3499 121.43C67.6399 121.94 66.8549 122.195 65.9949 122.195C65.1349 122.195 64.3749 122.045 63.7149 121.745L63.8349 122.045C63.8649 122.105 63.8399 122.16 63.7599 122.21C63.6899 122.27 63.6099 122.3 63.5199 122.3C63.4299 122.3 63.3699 122.275 63.3399 122.225C63.0199 121.415 62.8249 120.475 62.7549 119.405C62.7549 119.305 62.8349 119.255 62.9949 119.255C63.1549 119.255 63.2399 119.29 63.2499 119.36C63.4699 120.12 63.9149 120.73 64.5849 121.19C64.9949 121.48 65.4699 121.625 66.0099 121.625C66.5599 121.625 66.9999 121.47 67.3299 121.16C67.6699 120.84 67.8399 120.46 67.8399 120.02C67.8399 119.57 67.7249 119.17 67.4949 118.82C67.2649 118.46 66.9799 118.17 66.6399 117.95C66.2999 117.73 65.9299 117.5 65.5299 117.26C65.1299 117.01 64.7599 116.775 64.4199 116.555C64.0799 116.325 63.7949 116.02 63.5649 115.64C63.3349 115.26 63.2199 114.83 63.2199 114.35C63.2199 113.62 63.5449 113.005 64.1949 112.505C64.8549 111.995 65.6799 111.74 66.6699 111.74C67.1199 111.74 67.5399 111.8 67.9299 111.92L68.1099 111.965C68.0699 111.805 68.0449 111.695 68.0349 111.635C68.0349 111.575 68.0549 111.535 68.0949 111.515C68.1449 111.485 68.2149 111.47 68.3049 111.47C68.4049 111.47 68.4699 111.51 68.4999 111.59C68.7299 112.4 68.8649 113.195 68.9049 113.975C68.8749 114.035 68.7899 114.065 68.6499 114.065C68.5199 114.065 68.4399 114.05 68.4099 114.02C68.2999 113.61 68.1449 113.275 67.9449 113.015C67.7449 112.745 67.5249 112.56 67.2849 112.46C67.0449 112.36 66.7649 112.31 66.4449 112.31C65.8249 112.31 65.3799 112.47 65.1099 112.79C64.8499 113.1 64.7199 113.445 64.7199 113.825C64.7199 114.195 64.8049 114.515 64.9749 114.785C65.1549 115.045 65.3799 115.275 65.6499 115.475C65.9299 115.665 66.2349 115.855 66.5649 116.045C66.8949 116.225 67.2249 116.42 67.5549 116.63C67.8949 116.84 68.2049 117.07 68.4849 117.32C69.1049 117.87 69.4149 118.565 69.4149 119.405ZM82.8862 111.92L84.9862 111.875C85.0662 111.875 85.1062 111.96 85.1062 112.13C85.1062 112.3 85.0662 112.385 84.9862 112.385H84.3412C84.0912 112.385 83.9262 112.435 83.8462 112.535C83.7662 112.625 83.7262 112.805 83.7262 113.075V120.185C83.7262 121.065 83.8312 121.505 84.0412 121.505H84.9112C84.9912 121.505 85.0312 121.59 85.0312 121.76C85.0312 121.92 84.9912 122 84.9112 122L83.0212 121.985L80.9212 122.03C80.8412 122.03 80.8012 121.945 80.8012 121.775C80.8012 121.605 80.8412 121.52 80.9212 121.52H81.5662C81.8162 121.52 81.9812 121.475 82.0612 121.385C82.1412 121.285 82.1812 121.1 82.1812 120.83V117.29H76.8262V120.185C76.8262 121.065 76.9312 121.505 77.1412 121.505H78.0112C78.0912 121.505 78.1312 121.59 78.1312 121.76C78.1312 121.92 78.0912 122 78.0112 122L76.1212 121.985L74.0212 122.03C73.9412 122.03 73.9012 121.945 73.9012 121.775C73.9012 121.605 73.9412 121.52 74.0212 121.52H74.6662C74.9162 121.52 75.0812 121.475 75.1612 121.385C75.2412 121.285 75.2812 121.1 75.2812 120.83V113.72C75.2812 112.84 75.1762 112.4 74.9662 112.4H74.0962C74.0162 112.4 73.9762 112.32 73.9762 112.16C73.9762 111.99 74.0162 111.905 74.0962 111.905L75.9862 111.92L78.0862 111.875C78.1662 111.875 78.2062 111.96 78.2062 112.13C78.2062 112.3 78.1662 112.385 78.0862 112.385H77.4412C77.1912 112.385 77.0262 112.435 76.9462 112.535C76.8662 112.625 76.8262 112.805 76.8262 113.075V116.675H82.1812V113.72C82.1812 112.84 82.0762 112.4 81.8662 112.4H80.9962C80.9162 112.4 80.8762 112.32 80.8762 112.16C80.8762 111.99 80.9162 111.905 80.9962 111.905L82.8862 111.92ZM89.7671 111.905L91.6571 111.935H96.0071V111.62C96.0071 111.53 96.0771 111.485 96.2171 111.485C96.3671 111.485 96.4421 111.53 96.4421 111.62C96.4421 112.62 96.4921 113.38 96.5921 113.9C96.6121 113.98 96.5421 114.02 96.3821 114.02C96.2221 114.02 96.1321 113.98 96.1121 113.9C95.9521 113.27 95.7621 112.905 95.5421 112.805C95.0121 112.605 94.1621 112.5 92.9921 112.49C92.7921 112.5 92.6571 112.555 92.5871 112.655C92.5271 112.755 92.4971 112.93 92.4971 113.18V116.72C93.1171 116.71 93.7221 116.68 94.3121 116.63C94.9021 116.58 95.2221 116.54 95.2721 116.51L95.4221 115.625C95.4321 115.555 95.4921 115.52 95.6021 115.52C95.8121 115.52 95.9071 115.565 95.8871 115.655C95.8371 116.045 95.8121 116.485 95.8121 116.975C95.8121 117.465 95.8371 117.905 95.8871 118.295C95.9071 118.375 95.8321 118.415 95.6621 118.415C95.5021 118.415 95.4221 118.385 95.4221 118.325L95.2571 117.425C95.1971 117.395 94.8771 117.355 94.2971 117.305C93.7271 117.245 93.1271 117.21 92.4971 117.2V120.08C92.4971 120.96 92.6021 121.4 92.8121 121.4H93.5771C95.1271 121.38 96.1871 121.17 96.7571 120.77L96.8621 119.945C96.8821 119.865 96.9671 119.825 97.1171 119.825C97.2771 119.825 97.3571 119.855 97.3571 119.915L97.2221 122.33C97.2221 122.4 97.1421 122.435 96.9821 122.435C96.8321 122.435 96.7571 122.4 96.7571 122.33V122H93.0521L89.6921 122.03C89.6121 122.03 89.5721 121.945 89.5721 121.775C89.5721 121.605 89.6121 121.52 89.6921 121.52H90.3371C90.5871 121.52 90.7521 121.475 90.8321 121.385C90.9121 121.285 90.9521 121.1 90.9521 120.83V113.72C90.9521 112.84 90.8471 112.4 90.6371 112.4H89.7671C89.6871 112.4 89.6471 112.32 89.6471 112.16C89.6471 111.99 89.6871 111.905 89.7671 111.905ZM103.871 111.92L105.971 111.875C106.051 111.875 106.091 111.96 106.091 112.13C106.091 112.3 106.051 112.385 105.971 112.385H105.326C105.076 112.385 104.911 112.435 104.831 112.535C104.751 112.625 104.711 112.805 104.711 113.075V121.4H105.581C107.171 121.4 108.271 121.19 108.881 120.77L108.986 119.945C109.006 119.865 109.091 119.825 109.241 119.825C109.401 119.825 109.481 119.855 109.481 119.915L109.346 122.33C109.346 122.4 109.266 122.435 109.106 122.435C108.956 122.435 108.881 122.4 108.881 122.33V122H104.006L101.906 122.03C101.826 122.03 101.786 121.945 101.786 121.775C101.786 121.605 101.826 121.52 101.906 121.52H102.551C102.801 121.52 102.966 121.475 103.046 121.385C103.126 121.285 103.166 121.1 103.166 120.83V113.72C103.166 112.84 103.061 112.4 102.851 112.4H101.981C101.901 112.4 101.861 112.32 101.861 112.16C101.861 111.99 101.901 111.905 101.981 111.905C101.981 111.905 102.611 111.91 103.871 111.92ZM115.528 111.92L117.628 111.875C117.708 111.875 117.748 111.96 117.748 112.13C117.748 112.3 117.708 112.385 117.628 112.385H116.983C116.733 112.385 116.568 112.435 116.488 112.535C116.408 112.625 116.368 112.805 116.368 113.075V121.4H117.238C118.828 121.4 119.928 121.19 120.538 120.77L120.643 119.945C120.663 119.865 120.748 119.825 120.898 119.825C121.058 119.825 121.138 119.855 121.138 119.915L121.003 122.33C121.003 122.4 120.923 122.435 120.763 122.435C120.613 122.435 120.538 122.4 120.538 122.33V122H115.663L113.563 122.03C113.483 122.03 113.443 121.945 113.443 121.775C113.443 121.605 113.483 121.52 113.563 121.52H114.208C114.458 121.52 114.623 121.475 114.703 121.385C114.783 121.285 114.823 121.1 114.823 120.83V113.72C114.823 112.84 114.718 112.4 114.508 112.4H113.638C113.558 112.4 113.518 112.32 113.518 112.16C113.518 111.99 113.558 111.905 113.638 111.905C113.638 111.905 114.268 111.91 115.528 111.92ZM17.7783 129.92L19.8783 129.875C19.9583 129.875 19.9983 129.96 19.9983 130.13C19.9983 130.3 19.9583 130.385 19.8783 130.385H19.2333C18.9833 130.385 18.8183 130.435 18.7383 130.535C18.6583 130.625 18.6183 130.805 18.6183 131.075V138.185C18.6183 139.065 18.7233 139.505 18.9333 139.505H19.8033C19.8833 139.505 19.9233 139.59 19.9233 139.76C19.9233 139.92 19.8833 140 19.8033 140L17.9133 139.985L15.8133 140.03C15.7333 140.03 15.6933 139.945 15.6933 139.775C15.6933 139.605 15.7333 139.52 15.8133 139.52H16.4583C16.7083 139.52 16.8733 139.475 16.9533 139.385C17.0333 139.285 17.0733 139.1 17.0733 138.83V135.29H11.7183V138.185C11.7183 139.065 11.8233 139.505 12.0333 139.505H12.9033C12.9833 139.505 13.0233 139.59 13.0233 139.76C13.0233 139.92 12.9833 140 12.9033 140L11.0133 139.985L8.91332 140.03C8.83332 140.03 8.79332 139.945 8.79332 139.775C8.79332 139.605 8.83332 139.52 8.91332 139.52H9.55832C9.80832 139.52 9.97332 139.475 10.0533 139.385C10.1333 139.285 10.1733 139.1 10.1733 138.83V131.72C10.1733 130.84 10.0683 130.4 9.85832 130.4H8.98832C8.90832 130.4 8.86832 130.32 8.86832 130.16C8.86832 129.99 8.90832 129.905 8.98832 129.905L10.8783 129.92L12.9783 129.875C13.0583 129.875 13.0983 129.96 13.0983 130.13C13.0983 130.3 13.0583 130.385 12.9783 130.385H12.3333C12.0833 130.385 11.9183 130.435 11.8383 130.535C11.7583 130.625 11.7183 130.805 11.7183 131.075V134.675H17.0733V131.72C17.0733 130.84 16.9683 130.4 16.7583 130.4H15.8883C15.8083 130.4 15.7683 130.32 15.7683 130.16C15.7683 129.99 15.8083 129.905 15.8883 129.905L17.7783 129.92ZM38.0242 131.27C39.0942 130.25 40.3792 129.74 41.8792 129.74C43.3792 129.74 44.6642 130.25 45.7342 131.27C46.8042 132.29 47.3392 133.525 47.3392 134.975C47.3392 136.415 46.8042 137.645 45.7342 138.665C44.6642 139.685 43.3792 140.195 41.8792 140.195C40.3792 140.195 39.0942 139.685 38.0242 138.665C36.9542 137.645 36.4192 136.415 36.4192 134.975C36.4192 133.525 36.9542 132.29 38.0242 131.27ZM44.4442 131.735C43.7842 130.865 42.9292 130.43 41.8792 130.43C40.8292 130.43 39.9692 130.865 39.2992 131.735C38.6392 132.605 38.3092 133.685 38.3092 134.975C38.3092 136.255 38.6392 137.33 39.2992 138.2C39.9692 139.07 40.8292 139.505 41.8792 139.505C42.9292 139.505 43.7842 139.07 44.4442 138.2C45.1142 137.33 45.4492 136.255 45.4492 134.975C45.4492 133.685 45.1142 132.605 44.4442 131.735ZM72.4975 131.915C72.4975 131.995 72.4175 132.035 72.2575 132.035C72.0975 132.035 72.0125 131.99 72.0025 131.9C71.8825 131.25 71.6775 130.88 71.3875 130.79C70.8775 130.66 70.0425 130.585 68.8825 130.565C68.6825 130.575 68.5475 130.63 68.4775 130.73C68.4075 130.83 68.3725 131.005 68.3725 131.255V138.185C68.3725 139.065 68.4775 139.505 68.6875 139.505H69.5575C69.6375 139.505 69.6775 139.59 69.6775 139.76C69.6775 139.92 69.6375 140 69.5575 140L67.6675 139.985L65.5675 140.03C65.4875 140.03 65.4475 139.945 65.4475 139.775C65.4475 139.605 65.4875 139.52 65.5675 139.52H66.2125C66.4625 139.52 66.6275 139.475 66.7075 139.385C66.7875 139.285 66.8275 139.1 66.8275 138.83V131.885C66.8275 131.005 66.7275 130.565 66.5275 130.565H66.2125C65.2225 130.565 64.4225 130.64 63.8125 130.79C63.5225 130.88 63.3175 131.25 63.1975 131.9C63.1875 131.99 63.1025 132.035 62.9425 132.035C62.7825 132.035 62.7025 131.995 62.7025 131.915L62.8225 129.62C62.8225 129.53 62.9025 129.485 63.0625 129.485C63.2225 129.485 63.3025 129.53 63.3025 129.62V129.905C63.9825 129.925 64.6075 129.935 65.1775 129.935H69.6625C70.4725 129.935 71.2175 129.925 71.8975 129.905V129.62C71.8975 129.53 71.9775 129.485 72.1375 129.485C72.2975 129.485 72.3775 129.53 72.3775 129.62L72.4975 131.915ZM88.0606 129.905L89.9506 129.935H94.3006V129.62C94.3006 129.53 94.3706 129.485 94.5106 129.485C94.6606 129.485 94.7356 129.53 94.7356 129.62C94.7356 130.62 94.7856 131.38 94.8856 131.9C94.9056 131.98 94.8356 132.02 94.6756 132.02C94.5156 132.02 94.4256 131.98 94.4056 131.9C94.2456 131.27 94.0556 130.905 93.8356 130.805C93.3056 130.605 92.4556 130.5 91.2856 130.49C91.0856 130.5 90.9506 130.555 90.8806 130.655C90.8206 130.755 90.7906 130.93 90.7906 131.18V134.72C91.4106 134.71 92.0156 134.68 92.6056 134.63C93.1956 134.58 93.5156 134.54 93.5656 134.51L93.7156 133.625C93.7256 133.555 93.7856 133.52 93.8956 133.52C94.1056 133.52 94.2006 133.565 94.1806 133.655C94.1306 134.045 94.1056 134.485 94.1056 134.975C94.1056 135.465 94.1306 135.905 94.1806 136.295C94.2006 136.375 94.1256 136.415 93.9556 136.415C93.7956 136.415 93.7156 136.385 93.7156 136.325L93.5506 135.425C93.4906 135.395 93.1706 135.355 92.5906 135.305C92.0206 135.245 91.4206 135.21 90.7906 135.2V138.08C90.7906 138.96 90.8956 139.4 91.1056 139.4H91.8706C93.4206 139.38 94.4806 139.17 95.0506 138.77L95.1556 137.945C95.1756 137.865 95.2606 137.825 95.4106 137.825C95.5706 137.825 95.6506 137.855 95.6506 137.915L95.5156 140.33C95.5156 140.4 95.4356 140.435 95.2756 140.435C95.1256 140.435 95.0506 140.4 95.0506 140.33V140H91.3456L87.9856 140.03C87.9056 140.03 87.8656 139.945 87.8656 139.775C87.8656 139.605 87.9056 139.52 87.9856 139.52H88.6306C88.8806 139.52 89.0456 139.475 89.1256 139.385C89.2056 139.285 89.2456 139.1 89.2456 138.83V131.72C89.2456 130.84 89.1406 130.4 88.9306 130.4H88.0606C87.9806 130.4 87.9406 130.32 87.9406 130.16C87.9406 129.99 87.9806 129.905 88.0606 129.905ZM114.164 129.92L116.264 129.875C116.344 129.875 116.384 129.96 116.384 130.13C116.384 130.3 116.344 130.385 116.264 130.385H115.619C115.369 130.385 115.204 130.435 115.124 130.535C115.044 130.625 115.004 130.805 115.004 131.075V139.4H115.874C117.464 139.4 118.564 139.19 119.174 138.77L119.279 137.945C119.299 137.865 119.384 137.825 119.534 137.825C119.694 137.825 119.774 137.855 119.774 137.915L119.639 140.33C119.639 140.4 119.559 140.435 119.399 140.435C119.249 140.435 119.174 140.4 119.174 140.33V140H114.299L112.199 140.03C112.119 140.03 112.079 139.945 112.079 139.775C112.079 139.605 112.119 139.52 112.199 139.52H112.844C113.094 139.52 113.259 139.475 113.339 139.385C113.419 139.285 113.459 139.1 113.459 138.83V131.72C113.459 130.84 113.354 130.4 113.144 130.4H112.274C112.194 130.4 112.154 130.32 112.154 130.16C112.154 129.99 112.194 129.905 112.274 129.905C112.274 129.905 112.904 129.91 114.164 129.92Z" fill="black"/>
<path d="M48.0518 26.0515L39.8144 15.0897C33.132 15.7874 32.558 22.1522 33.1063 25.2474L45.1989 31.078L48.0518 26.0515Z" fill="#D89241"/>
<path d="M62.6228 17.0205L61.7912 2.58351C56.8006 -1.21885 53.1689 3.03332 51.9768 5.63471L56.6784 18.3166L62.6228 17.0205Z" fill="#D89241"/>
<path d="M45.0611 51.0208L42.5184 42.8422L29.1737 41.1955C24.8529 43.8083 26.7578 49.3289 28.2503 51.7626L45.0611 51.0208Z" fill="#D89241"/>
<path d="M45.3718 53.3525L28.2269 54.1291C25.9167 57.883 27.7625 62.6217 28.9742 64.5217L60.1484 61.2672L60.1484 57.4453L45.3718 53.3525Z" fill="#D89241"/>
<path d="M33.1846 27.9418L44.5741 33.508L43.302 40.7338L29.9223 38.753C26.6354 33.1516 30.7276 29.2116 33.1846 27.9418Z" fill="#D89241"/>
<path d="M54.4021 19.1678L50.0695 6.78512C43.3474 4.51459 41.4037 10.0542 41.2722 13.1078L49.4398 23.4013L54.4021 19.1678Z" fill="#D89241"/>
<path d="M74.6947 3.24431L71.9208 18.7332L65.2934 16.723L64.8656 2.9194C68.9911 -1.56445 73.1373 1.26773 74.6947 3.24431Z" fill="#D89241"/>
<path d="M81.4838 26.2156L85.9136 7.17611C83.6848 2.00465 78.0745 3.26582 76.5434 4.77671L73.6998 19.5974L81.4838 26.2156Z" fill="#D89241"/>
<path d="M78.5458 73.5364L86.7833 84.4982C93.4657 83.8005 94.0397 77.4357 93.4914 74.3405L81.3987 68.5099L78.5458 73.5364Z" fill="#D89241"/>
<path d="M63.9758 82.5674L64.8075 97.0044C69.798 100.807 73.4298 96.5546 74.6218 93.9532L69.9202 81.2713L63.9758 82.5674Z" fill="#D89241"/>
<path d="M81.5366 48.5675L84.0793 56.7462L97.4239 58.3929C101.745 55.7801 99.8399 50.2595 98.3473 47.8258L81.5366 48.5675Z" fill="#D89241"/>
<path d="M81.2259 46.2354L98.3707 45.4588C100.681 41.7049 98.8352 36.9662 97.6235 35.0661L66.4493 38.3207L66.4493 42.1426L81.2259 46.2354Z" fill="#D89241"/>
<path d="M93.4131 71.6466L82.0236 66.0804L83.2956 58.8545L96.6753 60.8353C99.9622 66.4368 95.8701 70.3768 93.4131 71.6466Z" fill="#D89241"/>
<path d="M72.1956 80.4206L76.5282 92.8033C83.2503 95.0738 85.1939 89.5342 85.3255 86.4806L77.1578 76.1871L72.1956 80.4206Z" fill="#D89241"/>
<path d="M51.904 96.3441L54.6779 80.8551L61.3052 82.8654L61.733 96.669C57.6076 101.153 53.4614 98.3206 51.904 96.3441Z" fill="#D89241"/>
<path d="M45.1139 73.3728L40.6841 92.4123C42.9128 97.5837 48.5231 96.3226 50.0542 94.8117L52.8979 79.991L45.1139 73.3728Z" fill="#D89241"/>
<path d="M90.5314 16.9352L93.7399 17.8464C94.5533 17.3089 96.5285 16.0403 97.9227 15.2662C99.317 14.4922 99.6656 15.5888 99.6656 16.2338L99.317 21.0717C100.595 21.8243 103.594 24.3833 103.805 24.6758C104.502 25.6434 103.108 25.9659 103.108 25.9659L97.9227 26.8772L96.1799 31.7151C95.6222 32.2311 95.018 31.9301 94.7856 31.7151L91.9971 27.8448L86.7251 27.5785C85.3308 27.256 86.3764 25.9659 86.3764 25.9659L89.2084 22.3618L88.44 20.4829L87.3943 18.5478C86.3764 16.6126 86.7251 16.2338 87.7428 16.2901L89.2084 16.6126L90.5314 16.9352Z" fill="#FFE600"/>
<path d="M5.99805 107H123.5" stroke="black"/>
<path d="M6 126H123.502M6 143.5H123.502" stroke="black"/>
</svg>
