<svg width="35" height="35" viewBox="0 0 35 35" fill="none" xmlns="http://www.w3.org/2000/svg">
<path d="M17.5 1.25891C7.7875 1.25891 0 9.11422 0 18.9295C0 20.382 0.056875 20.9344 0.35875 22.3245L5.69625 26.2784L6.5275 32.8639H15.4252L15.9042 33.1942C16.4511 33.5759 16.9302 33.7411 17.4825 33.7411C17.9955 33.7411 18.5478 33.5934 18.9755 33.285L19.5453 32.8639H28.432L29.2523 26.2784L34.6413 22.3245C34.9431 20.9344 35 20.382 35 18.9295C35 9.11969 27.2125 1.25891 17.5 1.25891ZM18.9525 4.5511C20.2628 4.5511 21.5447 4.87594 22.6155 5.49719L19.0214 23.7945L24.0122 6.20922C25.5555 6.73313 26.7236 7.57641 27.6697 8.85282L27.7036 8.90422L20.5548 24.3819L28.6781 10.22L28.7295 10.2594C29.8342 11.2908 30.5462 12.5442 30.9061 14.1214L21.8717 25.3039L31.2594 15.8244L31.2703 15.8528C31.6411 16.6731 31.8795 17.8358 31.8795 18.7633C31.8795 19.5038 31.8456 19.8002 31.64 20.5866L26.4556 24.3808L25.7775 29.7927H19.2489L18.4964 30.368C18.2055 30.5955 17.7898 30.7552 17.5 30.7552C17.2102 30.7552 16.7934 30.5955 16.5036 30.368L15.7511 29.7927H9.21703L8.57281 24.5284L3.28016 20.638C3.12423 20.039 3.04557 19.4226 3.04609 18.8038C3.04609 17.7494 3.28016 16.6272 3.66734 15.8069L3.68484 15.773L13.0955 25.3258L4.00969 14.0295C4.37391 12.4797 5.28609 10.9823 6.40281 10.0702L14.4867 24.3283L7.26359 8.89657C8.07297 7.70547 9.37672 6.77141 10.9725 6.23L15.9688 23.8328L12.1866 5.56391L12.2664 5.51797C13.4509 4.86282 14.5961 4.56094 15.8495 4.56094C16.1339 4.56094 16.2652 4.56641 16.6184 4.60688L17.4727 23.6392L18.1453 4.58938C18.4702 4.55547 18.5948 4.55 18.9547 4.55L18.9525 4.5511Z" fill="#2EA9DF"/>
</svg>
