<svg width="128" height="142" viewBox="0 0 128 142" fill="none" xmlns="http://www.w3.org/2000/svg">
<path d="M9.85059 123.154C9.20117 123.154 8.57617 123.059 7.97559 122.868C7.375 122.678 6.80127 122.385 6.25439 121.989V119.711H7.375L7.6167 121.389C7.93408 121.584 8.27832 121.735 8.64941 121.843C9.02051 121.95 9.4209 122.004 9.85059 122.004C10.3389 122.004 10.7515 121.931 11.0884 121.784C11.4302 121.633 11.6914 121.425 11.8721 121.162C12.0527 120.898 12.1431 120.59 12.1431 120.239C12.1431 119.912 12.0649 119.624 11.9087 119.375C11.7524 119.125 11.4937 118.908 11.1323 118.723C10.7759 118.532 10.2876 118.366 9.66748 118.225C8.93506 118.054 8.31494 117.827 7.80713 117.543C7.3042 117.255 6.9209 116.909 6.65723 116.503C6.39844 116.093 6.26904 115.625 6.26904 115.097C6.26904 114.541 6.41553 114.042 6.7085 113.603C7.00635 113.164 7.41895 112.817 7.94629 112.563C8.47363 112.309 9.08887 112.182 9.79199 112.182C10.5391 112.182 11.1982 112.297 11.7695 112.526C12.3457 112.751 12.8193 113.024 13.1904 113.347V115.478H12.0698L11.8281 113.955C11.6084 113.779 11.335 113.632 11.0078 113.515C10.6807 113.398 10.2754 113.339 9.79199 113.339C9.38184 113.339 9.02051 113.413 8.70801 113.559C8.39551 113.701 8.15137 113.901 7.97559 114.16C7.7998 114.418 7.71191 114.724 7.71191 115.075C7.71191 115.383 7.79004 115.651 7.94629 115.881C8.10742 116.11 8.36621 116.313 8.72266 116.489C9.08398 116.66 9.56494 116.821 10.1655 116.972C11.2886 117.25 12.1382 117.663 12.7144 118.21C13.2954 118.752 13.5859 119.423 13.5859 120.224C13.5859 120.795 13.4321 121.303 13.1245 121.748C12.8169 122.187 12.3823 122.531 11.8208 122.78C11.2642 123.029 10.6074 123.154 9.85059 123.154ZM20.4678 123V122.077L21.6616 121.872V113.427H19.2446L19.0322 114.907H17.9482V112.336H26.8105V114.907H25.7412L25.5215 113.427H23.1045V121.872L24.2983 122.077V123H20.4678ZM29.2979 123V122.077L30.0889 121.967L33.8169 112.336H35.0547L38.7168 121.967L39.5005 122.077V123H36.439V122.077L37.2446 121.938L36.5415 119.975H32.2715L31.5464 121.938L32.3521 122.077V123H29.2979ZM32.7183 118.767H36.1021L34.5347 114.431L34.4468 114.189H34.4028L34.3149 114.431L32.7183 118.767ZM43.6138 123V122.077L44.8076 121.872V113.471L43.6138 113.266V112.343H48.3672C49.1436 112.343 49.7979 112.46 50.3301 112.695C50.8672 112.924 51.2749 113.259 51.5532 113.698C51.8315 114.138 51.9707 114.675 51.9707 115.31C51.9707 115.935 51.834 116.459 51.5605 116.884C51.292 117.309 50.9087 117.631 50.4106 117.851C49.9126 118.066 49.3218 118.181 48.6382 118.195L46.2505 118.239V121.872L47.4443 122.077V123H43.6138ZM50.6523 123L48.2793 117.675L49.7222 117.661L51.6924 121.923L52.4321 122.055V123H50.6523ZM46.2505 117.104H48.2207C49.0264 117.104 49.6123 116.95 49.9785 116.643C50.3447 116.335 50.5278 115.886 50.5278 115.295C50.5278 114.733 50.3521 114.289 50.0005 113.962C49.6489 113.635 49.1045 113.471 48.3672 113.471H46.2505V117.104ZM67.3457 123.154C66.6963 123.154 66.0713 123.059 65.4707 122.868C64.8701 122.678 64.2964 122.385 63.7495 121.989V119.711H64.8701L65.1118 121.389C65.4292 121.584 65.7734 121.735 66.1445 121.843C66.5156 121.95 66.916 122.004 67.3457 122.004C67.834 122.004 68.2466 121.931 68.5835 121.784C68.9253 121.633 69.1865 121.425 69.3672 121.162C69.5479 120.898 69.6382 120.59 69.6382 120.239C69.6382 119.912 69.5601 119.624 69.4038 119.375C69.2476 119.125 68.9888 118.908 68.6274 118.723C68.271 118.532 67.7827 118.366 67.1626 118.225C66.4302 118.054 65.8101 117.827 65.3022 117.543C64.7993 117.255 64.416 116.909 64.1523 116.503C63.8936 116.093 63.7642 115.625 63.7642 115.097C63.7642 114.541 63.9106 114.042 64.2036 113.603C64.5015 113.164 64.9141 112.817 65.4414 112.563C65.9688 112.309 66.584 112.182 67.2871 112.182C68.0342 112.182 68.6934 112.297 69.2646 112.526C69.8408 112.751 70.3145 113.024 70.6855 113.347V115.478H69.5649L69.3232 113.955C69.1035 113.779 68.8301 113.632 68.5029 113.515C68.1758 113.398 67.7705 113.339 67.2871 113.339C66.877 113.339 66.5156 113.413 66.2031 113.559C65.8906 113.701 65.6465 113.901 65.4707 114.16C65.2949 114.418 65.207 114.724 65.207 115.075C65.207 115.383 65.2852 115.651 65.4414 115.881C65.6025 116.11 65.8613 116.313 66.2178 116.489C66.5791 116.66 67.0601 116.821 67.6606 116.972C68.7837 117.25 69.6333 117.663 70.2095 118.21C70.7905 118.752 71.0811 119.423 71.0811 120.224C71.0811 120.795 70.9272 121.303 70.6196 121.748C70.312 122.187 69.8774 122.531 69.3159 122.78C68.7593 123.029 68.1025 123.154 67.3457 123.154ZM75.3335 123V122.077L76.5273 121.872V113.471L75.3335 113.266V112.336H79.1641V113.266L77.9702 113.471V117.155H83.0679V113.471L81.874 113.266V112.336H83.0679H84.5107H85.7046V113.266L84.5107 113.471V121.872L85.7046 122.077V123H81.874V122.077L83.0679 121.872V118.291H77.9702V121.872L79.1641 122.077V123H75.3335ZM89.8911 123V122.077L91.085 121.872V113.471L89.8911 113.266V112.336H97.7866V114.899H96.6294L96.4683 113.449H92.5278V116.921H96.4609V118.056H92.5278V121.916H96.7026L96.8638 120.444H98.0137V123H89.8911ZM102.457 123V122.077L103.65 121.872V113.471L102.457 113.266V112.336H103.65H105.093H106.287V113.266L105.093 113.471V121.894H108.865L109.034 120.209H110.14V123H102.457ZM114.319 123V122.077L115.513 121.872V113.471L114.319 113.266V112.336H115.513H116.956H118.149V113.266L116.956 113.471V121.894H120.728L120.896 120.209H122.002V123H114.319ZM21.603 141V140.077L22.7969 139.872V131.471L21.603 131.266V130.336H25.4336V131.266L24.2397 131.471V135.155H29.3374V131.471L28.1436 131.266V130.336H29.3374H30.7803H31.9741V131.266L30.7803 131.471V139.872L31.9741 140.077V141H28.1436V140.077L29.3374 139.872V136.291H24.2397V139.872L25.4336 140.077V141H21.603ZM46.5112 141.154C45.8228 141.154 45.2051 141.022 44.6582 140.758C44.1113 140.495 43.645 140.124 43.2593 139.645C42.8784 139.162 42.5854 138.59 42.3804 137.931C42.1802 137.272 42.0801 136.544 42.0801 135.749V135.595C42.0801 134.804 42.1802 134.079 42.3804 133.419C42.5854 132.755 42.8784 132.182 43.2593 131.698C43.645 131.215 44.1113 130.841 44.6582 130.578C45.2051 130.314 45.8228 130.182 46.5112 130.182C47.2388 130.182 47.8784 130.314 48.4302 130.578C48.9819 130.841 49.4434 131.215 49.8145 131.698C50.1904 132.182 50.4736 132.755 50.6641 133.419C50.8545 134.079 50.9497 134.804 50.9497 135.595V135.749C50.9497 136.544 50.8545 137.272 50.6641 137.931C50.4736 138.59 50.1904 139.162 49.8145 139.645C49.4434 140.124 48.9819 140.495 48.4302 140.758C47.8784 141.022 47.2388 141.154 46.5112 141.154ZM46.5112 139.953C47.2192 139.953 47.7905 139.777 48.2251 139.425C48.6646 139.074 48.9868 138.583 49.1919 137.953C49.397 137.318 49.4995 136.583 49.4995 135.749V135.58C49.4995 134.75 49.3945 134.022 49.1846 133.397C48.9795 132.768 48.6572 132.277 48.2178 131.925C47.7783 131.569 47.2095 131.391 46.5112 131.391C45.8716 131.391 45.3296 131.569 44.8853 131.925C44.4409 132.282 44.104 132.775 43.8745 133.405C43.645 134.03 43.5303 134.755 43.5303 135.58V135.749C43.5303 136.579 43.645 137.311 43.8745 137.946C44.104 138.576 44.4409 139.069 44.8853 139.425C45.3296 139.777 45.8716 139.953 46.5112 139.953ZM63.4873 141V140.077L64.6812 139.872V131.427H62.2642L62.0518 132.907H60.9678V130.336H69.8301V132.907H68.7607L68.541 131.427H66.124V139.872L67.3179 140.077V141H63.4873ZM80.1558 141V140.077L81.3496 139.872V131.471L80.1558 131.266V130.336H88.0513V132.899H86.894L86.7329 131.449H82.7925V134.921H86.7256V136.056H82.7925V139.916H86.9673L87.1284 138.444H88.2783V141H80.1558ZM98.7212 141V140.077L99.915 139.872V131.471L98.7212 131.266V130.336H99.915H101.358H102.552V131.266L101.358 131.471V139.894H105.13L105.298 138.209H106.404V141H98.7212Z" fill="black"/>
<path d="M48.0518 26.0515L39.8144 15.0897C33.132 15.7874 32.558 22.1522 33.1063 25.2474L45.1989 31.078L48.0518 26.0515Z" fill="#D89241"/>
<path d="M62.6228 17.0205L61.7912 2.58351C56.8006 -1.21885 53.1689 3.03332 51.9768 5.63471L56.6784 18.3166L62.6228 17.0205Z" fill="#D89241"/>
<path d="M45.0611 51.0208L42.5184 42.8422L29.1737 41.1955C24.8529 43.8083 26.7578 49.3289 28.2503 51.7626L45.0611 51.0208Z" fill="#D89241"/>
<path d="M45.3718 53.3525L28.2269 54.1291C25.9167 57.883 27.7625 62.6217 28.9742 64.5217L60.1484 61.2672L60.1484 57.4453L45.3718 53.3525Z" fill="#D89241"/>
<path d="M33.1846 27.9418L44.5741 33.508L43.302 40.7338L29.9223 38.753C26.6354 33.1516 30.7276 29.2116 33.1846 27.9418Z" fill="#D89241"/>
<path d="M54.4021 19.1678L50.0695 6.78512C43.3474 4.51459 41.4037 10.0542 41.2722 13.1078L49.4398 23.4013L54.4021 19.1678Z" fill="#D89241"/>
<path d="M74.6947 3.24431L71.9208 18.7332L65.2934 16.723L64.8656 2.9194C68.9911 -1.56445 73.1373 1.26773 74.6947 3.24431Z" fill="#D89241"/>
<path d="M81.4838 26.2156L85.9136 7.17611C83.6848 2.00465 78.0745 3.26582 76.5434 4.77671L73.6998 19.5974L81.4838 26.2156Z" fill="#D89241"/>
<path d="M78.5458 73.5364L86.7833 84.4982C93.4657 83.8005 94.0397 77.4357 93.4914 74.3405L81.3987 68.5099L78.5458 73.5364Z" fill="#D89241"/>
<path d="M63.9758 82.5674L64.8075 97.0044C69.798 100.807 73.4298 96.5546 74.6218 93.9532L69.9202 81.2713L63.9758 82.5674Z" fill="#D89241"/>
<path d="M81.5366 48.5675L84.0793 56.7462L97.4239 58.3929C101.745 55.7801 99.8399 50.2595 98.3473 47.8258L81.5366 48.5675Z" fill="#D89241"/>
<path d="M81.2259 46.2354L98.3707 45.4588C100.681 41.7049 98.8352 36.9662 97.6235 35.0661L66.4493 38.3207L66.4493 42.1426L81.2259 46.2354Z" fill="#D89241"/>
<path d="M93.4131 71.6466L82.0236 66.0804L83.2956 58.8545L96.6753 60.8353C99.9622 66.4368 95.8701 70.3768 93.4131 71.6466Z" fill="#D89241"/>
<path d="M72.1956 80.4206L76.5282 92.8033C83.2503 95.0738 85.1939 89.5342 85.3255 86.4806L77.1578 76.1871L72.1956 80.4206Z" fill="#D89241"/>
<path d="M51.904 96.3441L54.6779 80.8551L61.3052 82.8654L61.733 96.669C57.6076 101.153 53.4614 98.3206 51.904 96.3441Z" fill="#D89241"/>
<path d="M45.1139 73.3728L40.6841 92.4123C42.9128 97.5837 48.5231 96.3226 50.0542 94.8117L52.8979 79.991L45.1139 73.3728Z" fill="#D89241"/>
<path d="M90.5314 16.9352L93.7399 17.8464C94.5533 17.3089 96.5285 16.0403 97.9227 15.2662C99.317 14.4922 99.6656 15.5888 99.6656 16.2338L99.317 21.0717C100.595 21.8243 103.594 24.3833 103.805 24.6758C104.502 25.6434 103.108 25.9659 103.108 25.9659L97.9227 26.8772L96.1799 31.7151C95.6222 32.2311 95.018 31.9301 94.7856 31.7151L91.9971 27.8448L86.7251 27.5785C85.3308 27.256 86.3764 25.9659 86.3764 25.9659L89.2084 22.3618L88.44 20.4829L87.3943 18.5478C86.3764 16.6126 86.7251 16.2338 87.7428 16.2901L89.2084 16.6126L90.5314 16.9352Z" fill="#FFE600"/>
</svg>
